<?xml version="1.0" standalone="no"?><!DOCTYPE svg PUBLIC "-//W3C//DTD SVG 1.1//EN" "http://www.w3.org/Graphics/SVG/1.1/DTD/svg11.dtd"><svg t="1502193245852" class="icon" style="" viewBox="0 0 1024 1024" version="1.1" xmlns="http://www.w3.org/2000/svg" p-id="2392" xmlns:xlink="http://www.w3.org/1999/xlink" width="128" height="128"><defs><style type="text/css"></style></defs><path d="M597.333333 85.333333C550.205056 85.333333 512 123.538368 512 170.666667 512 178.47229 512.703659 186.150306 514.666667 193.333333L424 266.666667C412.02967 260.268971 398.521212 256 384 256 355.926161 256 331.551539 269.742374 316 290.666667L253.333333 277.333333C243.862925 240.52483 210.431168 213.333333 170.666667 213.333333 123.538368 213.333333 85.333333 251.538368 85.333333 298.666667 85.333333 345.794965 123.538368 384 170.666667 384 200.759735 384 227.473557 368.864333 242.666667 345.333333L300 357.333333C307.457395 396.853517 342.312247 426.666667 384 426.666667 431.128277 426.666667 469.333333 388.461632 469.333333 341.333333 469.333333 333.52771 468.629675 325.849694 466.666667 318.666667L557.333333 246.666667C569.169877 252.880393 583.037269 256 597.333333 256 611.216683 256 624.413995 252.54903 636 246.666667L772 360C769.741099 367.662993 768 375.605274 768 384 768 431.128277 806.205056 469.333333 853.333333 469.333333 900.461611 469.333333 938.666667 431.128277 938.666667 384 938.666667 336.871701 900.461611 298.666667 853.333333 298.666667 839.449984 298.666667 826.252672 302.117636 814.666667 308L678.666667 194.666667C680.925568 187.003674 682.666667 179.061393 682.666667 170.666667 682.666667 123.538368 644.461611 85.333333 597.333333 85.333333zM512 512 512 938.666667 682.666667 938.666667 682.666667 512 512 512zM725.333333 640 725.333333 938.666667 896 938.666667 896 640 725.333333 640zM85.333333 682.666667 85.333333 938.666667 256 938.666667 256 682.666667 85.333333 682.666667zM298.666667 725.333333 298.666667 938.666667 469.333333 938.666667 469.333333 725.333333 298.666667 725.333333z" p-id="2393" fill="#9ba3af"></path></svg>