<?xml version="1.0" standalone="no"?><!DOCTYPE svg PUBLIC "-//W3C//DTD SVG 1.1//EN" "http://www.w3.org/Graphics/SVG/1.1/DTD/svg11.dtd"><svg t="1502195584153" class="icon" style="" viewBox="0 0 1027 1024" version="1.1" xmlns="http://www.w3.org/2000/svg" p-id="1997" xmlns:xlink="http://www.w3.org/1999/xlink" width="128.375" height="128"><defs><style type="text/css"></style></defs><path d="M944 224C899.2 224 864 259.2 864 304c0 6.4 0 12.8 3.2 19.2l-204.8 166.4c-9.6-6.4-22.4-9.6-38.4-9.6-19.2 0-38.4 6.4-54.4 19.2L416 432c0-44.8-35.2-80-80-80S256 387.2 256 432c0 12.8 3.2 25.6 9.6 35.2l-160 176c-9.6 0-16-3.2-25.6-3.2C35.2 640 0 675.2 0 720S35.2 800 80 800 160 764.8 160 720c0-12.8-3.2-22.4-6.4-32l163.2-179.2c6.4 3.2 12.8 3.2 22.4 3.2 22.4 0 41.6-9.6 54.4-22.4l153.6 70.4c0 44.8 35.2 80 80 80s80-35.2 80-80c0-6.4 0-12.8-3.2-19.2l204.8-166.4c9.6 6.4 22.4 9.6 38.4 9.6 44.8 0 80-35.2 80-80C1024 259.2 988.8 224 944 224z" fill="#ffffff" p-id="1998"></path></svg>