<?xml version="1.0" standalone="no"?><!DOCTYPE svg PUBLIC "-//W3C//DTD SVG 1.1//EN" "http://www.w3.org/Graphics/SVG/1.1/DTD/svg11.dtd"><svg t="1505102436487" class="icon" style="" viewBox="0 0 1024 1024" version="1.1" xmlns="http://www.w3.org/2000/svg" p-id="1879" xmlns:xlink="http://www.w3.org/1999/xlink" width="128" height="128"><defs><style type="text/css"></style></defs><path d="M512 987.67a470.62 470.62 0 0 1-183.15-904 470.62 470.62 0 0 1 366.29 867 467.58 467.58 0 0 1-183.14 37z m0-896c-234.62 0-425.5 190.88-425.5 425.5s190.88 425.5 425.5 425.5 425.5-190.88 425.5-425.5S746.62 91.67 512 91.67z" fill="#ffffff" p-id="1880"></path><path d="M512 279a22.5 22.5 0 0 1-22.5-22.5V139.17a22.5 22.5 0 0 1 45 0v117.36A22.5 22.5 0 0 1 512 279zM512 917.67a22.5 22.5 0 0 1-22.5-22.5V777.81a22.5 22.5 0 1 1 45 0v117.36a22.5 22.5 0 0 1-22.5 22.5zM251.36 539.67H134a22.5 22.5 0 0 1 0-45h117.36a22.5 22.5 0 0 1 0 45zM890 539.67H772.64a22.5 22.5 0 0 1 0-45H890a22.5 22.5 0 0 1 0 45zM499.87 622.63a98.5 98.5 0 0 1-69.65-168.16c9-9 32.75-27 133.71-78.41 54.39-27.68 105.81-52 106.33-52.29l56.89-26.92-26.92 56.89c-0.24 0.51-24.6 51.94-52.29 106.33-51.39 101-69.36 124.66-78.41 133.71a97.86 97.86 0 0 1-69.66 28.85z m131.49-230a4070.99 4070.99 0 0 0-47.1 23.58C488.41 465 466.85 481.48 462 486.3a53.5 53.5 0 1 0 75.71 75.7c4.82-4.82 21.29-26.37 70.08-122.22a4596.16 4596.16 0 0 0 23.57-47.14z" fill="#ffffff" p-id="1881"></path><path d="M501.52 521.64m-25.48 0a25.48 25.48 0 1 0 50.96 0 25.48 25.48 0 1 0-50.96 0Z" fill="#ffffff" p-id="1882"></path></svg>