<?xml version="1.0" standalone="no"?><!DOCTYPE svg PUBLIC "-//W3C//DTD SVG 1.1//EN" "http://www.w3.org/Graphics/SVG/1.1/DTD/svg11.dtd"><svg t="1499420966485" class="icon" style="" viewBox="0 0 1024 1024" version="1.1" xmlns="http://www.w3.org/2000/svg" p-id="4216" xmlns:xlink="http://www.w3.org/1999/xlink" width="200" height="200"><defs><style type="text/css"></style></defs><path d="M256.80176 545.600259c0-13.020548-10.55745-23.558555-23.26282-23.558555-12.701277 0-23.26282 10.538007-23.26282 23.558555 0 13.207813 10.561543 23.38664 23.26282 23.38664C246.243287 568.986899 256.80176 558.809095 256.80176 545.600259z" p-id="4217" fill="#ffffff"></path><path d="M383.15961 626.303302c-10.725272 6.841825-22.432918 12.029988-34.307364 15.532765-11.874445 3.678786-24.260543 5.525853-36.96182 5.525853-12.855796 0-25.38925-1.848091-37.284161-5.525853-11.878538-3.502777-23.414269-8.689916-34.311457-15.532765-6.432503-4.347005-15.167444-2.173502-19.137873 4.347005-3.949962 6.687306-1.978051 15.207353 4.2897 19.382443 12.707416 8.022721 26.726711 14.696724 41.573861 18.868743 14.189164 4.347005 29.379121 6.860245 44.868907 6.860245 15.186887 0 30.357402-2.51324 44.543496-6.860245 14.85022-4.172019 28.700669-10.847046 41.576931-18.868743 6.432503-4.175089 8.579399-12.694113 4.28663-19.382443C398.346497 624.1298 389.763005 621.956298 383.15961 626.303302z" p-id="4218" fill="#ffffff"></path><path d="M390.087393 522.042727c-13.023618 0-23.410176 10.538007-23.410176 23.558555 0 13.207813 10.386558 23.38664 23.410176 23.38664 12.55392 0 23.108301-10.177803 23.108301-23.38664C413.19467 532.579711 402.64029 522.042727 390.087393 522.042727z" p-id="4219" fill="#ffffff"></path><path d="M679.091576 603.489714c0-11.926634-9.949606-21.559015-22.088064-21.559015-11.81407 0-21.767769 9.631358-21.767769 21.559015 0 11.930727 9.952676 21.716604 21.767769 21.716604C669.14197 625.206318 679.091576 615.419418 679.091576 603.489714z" p-id="4220" fill="#ffffff"></path><path d="M982.337111 739.868801c0.303922-27.212782 4.508687-57.941644 9.333576-88.985684 8.708336-57.332776 16.162098-108.24533 10.412141-157.777443-5.749958-51.367925-25.349341-99.367125-70.90898-148.293441-2.644223-2.752694-5.749958-6.122441-9.17394-9.488095 4.043083-6.573719 6.209422-14.512529 6.209422-22.621207 0-12.539594-5.124717-23.702841-13.361309-31.951713-8.086166-7.797593-19.59836-13.30605-32.199353-13.30605-4.203742 0-8.230452 0.919952-11.971659 1.989307-2.803859-6.420223-6.846942-12.07399-11.512195-16.817014-9.318226-9.019421-22.072715-14.981203-36.229133-14.981203-4.206812 0-8.233522 0.452301-12.276604 1.675152-5.910617-38.061874-39.508829-66.962088-78.70248-66.962088-39.649022 0-73.230861 28.900214-78.998215 66.962088-4.046153-1.221828-8.089235-1.675152-12.43931-1.675152-13.678534 0-26.128077 5.649674-35.144428 14.060227l-0.937348 0.920976c-4.810562 4.743024-8.852622 10.395768-11.19497 16.817014-4.046153-1.068332-8.089235-1.989307-12.43931-1.989307-12.43317 0-23.946388 5.509481-32.038694 13.30605-8.390088 8.249895-13.514805 19.412119-13.514805 31.951713 0 0.312108 0.01228 0.62217 0.019443 0.932232-43.627636-80.82584-118.899994-137.445372-223.37751-137.445372-161.662937 0-253.393127 135.004787-266.585591 285.714254-22.432918 18.203594-35.964096 45.938262-35.964096 75.005274 0 24.394596 8.915044 46.61876 23.766286 63.335491 11.875468 14.027481 28.361955 24.223704 46.677089 29.238928 22.600741 40.428781 54.766324 74.679863 93.211938 98.734722 3.295046 2.001587 6.587022 4.001127 9.731642 5.852288l0 99.244328c0 7.850805 6.435573 14.202467 14.017248 14.202467 2.63706 0 5.119601-1.011027 7.266497-2.176572l48.497551-29.904077c5.441942 7.340175 14.511505 12.352329 24.091698 12.352329l70.27453 0c9.55768 0 18.478863-5.012154 24.085558-12.352329l48.332798 29.904077c2.465145 1.165546 4.779863 2.176572 7.413853 2.176572 7.921413 0 14.193257-6.351662 14.193257-14.202467l0-99.245352c3.140527-1.851161 6.26775-4.004197 9.577123-5.852288 9.632381-6.002714 18.853393-12.640901 27.623128-19.851117 1.006933 10.870582 1.663896 21.432125 1.775436 31.501458 0 26.14445-3.423983 50.613748-13.518898 71.858608-0.638543 1.675152-1.401929 3.664459-1.879813 5.653767-1.864464 11.474332 6.224772 22.479991 18.202571 24.466228 53.648874 8.862855 115.705232-7.341199 131.404796-65.441455l0.304945 0c35.462676 20.026102 75.894528 30.736025 116.64565 30.736025 40.275285 0 80.081896-10.096962 115.069759-29.811979l2.178619-0.924045c4.668323 17.898649 15.084557 33.94102 30.020734 45.403073 12.43317 9.940396 28.136827 16.971533 46.022173 20.337187 16.33913 2.913353 34.365692 3.212158 54.586223 0 2.181689-0.297782 4.205788-0.766456 6.529717-1.989307 10.890025-5.037736 15.559371-17.721617 10.270924-28.428469C985.442846 790.482549 982.337111 766.013251 982.337111 739.868801zM567.429427 299.099099c3.423983-3.365654 8.089235-5.66707 13.373589-5.66707 2.486634 0 4.986571 0.62524 6.995321 1.533936l0.779759 0.157589c1.861394 0.766456 3.583618 1.675152 5.285377 3.50687 5.288446 4.444219 13.697977 4.133134 18.662035-1.517563 2.184759-2.146896 3.430122-5.653767 3.122107-9.016351l0.308015 0c0-6.735401 2.797719-12.999059 7.148817-17.442254l0.6191-0.61296c4.363378-3.975545 10.267854-6.417153 16.797571-6.417153 3.266393 0 6.227842 0.452301 9.016351 1.690502l0.6191 0.297782c2.503007 0.763386 4.828982 2.143826 7.16519 4.13211 5.291516 4.88424 13.681604 4.27435 18.343787-0.769526 2.804882-3.204995 3.731998-7.027044 3.427052-10.703783l-0.321318-3.50994-0.301875-0.153496 0.301875 0-0.301875-3.664459c0-28.900214 23.952528-52.29197 53.488215-52.29197 29.240975 0 53.187363 23.390733 53.18634 52.292993l-0.154519 3.664459 0 0.452301-0.465604 3.365654c-0.940418 7.186679 4.043083 13.604856 11.19804 14.528901 4.043083 0.455371 7.9296-0.60989 10.5728-3.209088 2.339278-1.990331 4.983501-3.680832 7.772011-4.430916 2.797719-1.238201 5.763261-1.690502 8.868995-1.690502 7.004531 0 13.217023 2.753717 17.5804 7.030114 4.505617 4.444219 7.450692 10.706853 7.450692 17.442254l0 0.904603c0 7.030114 5.910617 12.69616 12.757558 12.69616 3.423983 0.297782 6.687306-1.222851 9.026584-3.067872 1.863441-1.832741 4.033873-3.054569 5.910617-3.664459l0.141216 0c2.025123-0.907673 4.524037-1.533936 6.847965-1.533936 5.448082 0 10.414187 2.301416 13.839193 5.66707 3.423983 3.365654 5.448082 8.252964 5.448082 13.604856 0 4.746094-1.703805 9.020444-4.508687 12.225439-2.178619 2.759857-5.605671 4.746094-9.029654 5.811356-22.38994-8.40646-46.644343-15.278985-72.15332-19.710924-55.047734-10.254551-113.52252-10.254551-169.035858 0-25.512047 4.430916-49.602721 11.304464-72.009034 19.710924-3.40761-1.065262-6.670933-3.051499-9.013281-5.811356-2.800789-3.206018-4.665253-7.479345-4.665253-12.225439C561.52188 307.35104 563.703569 302.464753 567.429427 299.099099zM311.890426 223.307925c130.668015 0 203.083302 106.263186 218.255863 227.90564-86.762039 17.877159-142.202723 13.19144-182.950775-6.863315-43.548842-20.871353-72.589248-60.9737-106.238626-108.262726-4.612041-6.517437-13.19451-7.850805-19.463284-3.335978-3.799536 2.838651-5.945409 7.013741-5.945409 11.360745 0 41.60763-14.848173 68.505233-39.256072 84.875063-21.287839 13.856589-49.988508 20.544919-83.147722 23.064298C107.99155 330.579067 180.917466 223.307925 311.890426 223.307925zM246.563582 785.53384l-35.964096 22.544459L210.599486 747.927337c11.555174 4.860704 23.77038 8.860808 35.964096 12.368702L246.563582 785.53384zM348.852246 797.388842c0 0.494257-0.339738 1.007957-0.657986 1.333368-0.339738 0.338714-0.661056 0.668219-1.316995 0.668219l-70.27453 0c-0.661056 0-0.997724-0.328481-1.316995-0.668219-0.342808-0.325411-0.678452-0.840134-0.678452-1.333368 0-10.691503 0-21.042245 0-31.583323 12.214183 1.848091 24.747637 2.51631 37.284161 2.51631 12.382005 0 24.747637-0.668219 36.96182-2.51631C348.852246 776.346597 348.852246 786.696316 348.852246 797.388842zM412.691203 808.078299l-35.964096-22.544459 0-25.238824c12.382005-3.50687 24.575722-7.506974 35.964096-12.368702L412.691203 808.078299zM426.054559 688.288029c-33.313733 20.887726-72.253604 32.91669-114.164133 32.91669-42.23287 0-81.320097-12.029988-114.482381-32.91669-34.647101-21.88545-63.012126-52.969399-81.979106-90.387613-3.466961-7.013741-10.411117-11.703553-17.656125-12.523221l0-0.170892c-11.875468-1.333368-22.435988-7.52437-29.867238-16.046464-7.417947-8.519024-12.046361-19.87977-12.046361-32.248472 0-17.042141 8.922207-32.900318 23.598464-41.591257 5.77861-3.510964 9.395998-8.694009 10.712993-14.868639 39.934524-1.848091 74.580602-10.538007 101.307314-27.733645 24.069185-16.047488 40.894386-38.936801 48.160883-71.01745 27.720342 37.756929 55.764048 68.847018 95.681176 87.887676 45.541219 22.550599 105.916285 28.398794 197.630103 9.68457 1.333368 6.688329 5.452175 12.537548 10.894118 16.048511 14.851243 8.69094 23.752983 24.549116 23.752983 41.591257 0 12.368702-4.616134 23.729447-11.878538 32.248472-7.585769 8.522094-18.140149 14.713097-30.018687 16.046464-8.583492 0.99056-15.506159 6.845918-18.650779 14.696724C488.422002 636.155694 460.039581 667.074891 426.054559 688.288029zM516.424776 801.329595c5.288446-19.566638 7.148817-40.201607 7.148817-61.619406-0.226151-23.25668-2.734274-47.118134-6.133697-71.191412 8.020674-9.971096 15.394618-20.527522 22.062482-31.585369 2.166339 29.66974 9.742898 60.313667 27.308973 86.419232C593.244372 762.350838 555.295062 799.500946 516.424776 801.329595zM731.036645 764.337075c-51.322899 0-109.641119-22.026666-141.217279-62.684668-17.600867-22.913872-24.766057-50.878784-25.568329-80.34284 9.934257-5.399987 18.874883-12.549827 26.288736-21.065781 12.938684-14.735609 21.248953-33.754778 23.038716-54.765301 29.248138 4.804423 56.032154 1.49505 79.509868-8.948813 29.240975-12.694113 53.187363-35.928281 70.450539-67.270103 11.034311 23.545252 24.093744 42.800805 40.577161 59.004859 21.465894 21.559015 48.373731 37.310767 83.983763 47.40773C905.662825 679.624718 859.165838 764.337075 731.036645 764.337075zM948.114682 644.317585c-4.662183 32.251541-9.330506 64.35982-9.474792 95.391581-0.156566 21.417799 1.706875 42.053792 6.992251 61.619406-4.665253 0-9.012258-0.608867-13.059434-1.533936-52.568263-9.468652-50.382481-57.175187-30.635741-96.469122 22.38994-43.724851 19.441794-92.651167 10.41521-140.039453-0.927115-4.746094-4.668323-8.720615-9.333576-10.096962-35.144428-9.016351-60.638055-23.234167-80.242556-42.646286-18.805298-18.956747-32.80208-43.11496-44.779879-73.080435 2.486634-6.731308 6.53074-21.414729 6.847965-38.684044 0.148379-7.031137-5.602601-12.995989-12.751419-12.995989-7.151887 0-13.220093 5.355985-13.379729 12.540617-0.318248 15.436574-4.983501 29.04143-6.687306 33.472346l-0.317225 1.077541-0.144286 0c-1.562589 4.588505-3.263323 8.862855-5.288446 12.68081l0 0.61296c-15.238053 31.951713-37.022195 55.044664-63.760163 66.817802-20.376073 8.795317-43.966351 11.255345-70.28374 5.970992-4.272303-22.276353-16.361643-42.648332-34.246989-57.050344-2.437515-28.210505-7.634888-55.870472-15.527648-82.198094 1.719154-1.948375 3.480264-3.89982 5.29254-5.853311l0.920976-1.065262c23.330358-24.610514 51.008744-30.43415 83.364663-36.379559 52.250014-9.645684 107.138112-9.645684 159.388127 0 37.486776 6.714935 62.995753 11.143805 87.549985 37.443797 38.568411 41.283242 54.903447 81.645508 59.71708 123.836423C963.674053 541.727045 956.521143 590.039377 948.114682 644.317585z" p-id="4221" fill="#ffffff"></path><path d="M798.203394 677.340699c-10.254551 6.260587-21.147646 11.003612-32.340569 14.372336-11.193947 3.206018-22.707165 4.88424-35.144428 4.88424-12.135388 0-23.952528-1.678222-34.987862-4.88424-11.351536-3.369747-22.245653-8.111748-32.199353-14.372336-6.212492-3.663436-14.298658-1.678222-18.026562 3.975545-3.741207 6.263657-2.02103 14.06125 4.02978 17.879206 12.131295 7.498788 25.191752 13.46057 38.885636 17.439184 13.678534 3.978614 27.995611 5.808286 42.297338 5.808286 14.459317 0 28.614711-1.829671 42.294268-5.808286 13.996782-3.978614 26.913976-9.940396 39.029922-17.439184 6.067182-3.817955 7.78736-11.615549 4.043083-17.879206C812.203246 675.662477 804.114011 673.675216 798.203394 677.340699z" p-id="4222" fill="#ffffff"></path><path d="M804.432259 581.930699c-12.131295 0-21.927405 9.631358-21.927405 21.559015 0 11.930727 9.79611 21.716604 21.927405 21.716604s21.927405-9.7869 21.927405-21.716604C826.359664 591.56308 816.563554 581.930699 804.432259 581.930699z" p-id="4223" fill="#ffffff"></path></svg>