<?xml version="1.0" standalone="no"?><!DOCTYPE svg PUBLIC "-//W3C//DTD SVG 1.1//EN" "http://www.w3.org/Graphics/SVG/1.1/DTD/svg11.dtd"><svg t="1499419568036" class="icon" style="" viewBox="0 0 1024 1024" version="1.1" xmlns="http://www.w3.org/2000/svg" p-id="1018" xmlns:xlink="http://www.w3.org/1999/xlink" width="200" height="200"><defs><style type="text/css"></style></defs><path d="M822.018349 873.688073 201.981651 873.688073C150.095853 873.688073 108.036697 831.628917 108.036697 779.743119L108.036697 258.348624C108.036697 208.050495 147.596917 167.104587 197.284404 164.638532L197.284404 192.822018C163.168294 195.241101 136.220183 223.617174 136.220183 258.348624L136.220183 273.304661C137.695119 272.778569 139.259303 272.440367 140.917431 272.440367L230.165138 272.440367C237.948477 272.440367 244.256881 278.748771 244.256881 286.53211 244.256881 294.31545 237.948477 300.623853 230.165138 300.623853L140.917431 300.623853C139.259303 300.623853 137.695119 300.285651 136.220183 299.75956L136.220183 779.743119C136.220183 816.062239 165.662532 845.504587 201.981651 845.504587L822.018349 845.504587C858.337468 845.504587 887.779817 816.062239 887.779817 779.743119L887.779817 300.623853 831.412844 300.623853C823.629505 300.623853 817.321101 294.31545 817.321101 286.53211 817.321101 278.748771 823.629505 272.440367 831.412844 272.440367L887.779817 272.440367 887.779817 258.348624C887.779817 223.617174 860.831706 195.241101 826.715596 192.822018L826.715596 164.638532C876.403083 167.104587 915.963303 208.050495 915.963303 258.348624L915.963303 779.743119C915.963303 831.628917 873.904147 873.688073 822.018349 873.688073ZM788.860477 545.411523C786.835963 532.498789 778.568807 526.035376 764.035523 526.035376 752.325284 526.444037 746.06855 530.680954 745.265321 538.750826 744.452697 546.017468 752.325284 551.466275 768.883083 555.101945 781.795817 557.929688 792.289468 561.560661 800.368734 565.99956 814.493358 574.078826 821.76 585.375706 822.163963 599.908991 820.952073 625.739156 803.393761 639.055853 769.48433 639.873174 735.579596 640.267743 715.386128 625.537174 708.936807 595.672073L738.604624 589.612624C741.028404 608.185541 751.113394 617.467303 768.883083 617.467303 782.19978 617.072734 789.259743 611.619229 790.072367 601.120881 790.471633 593.854239 785.83545 588.20345 776.145028 584.163817 766.050642 580.532844 757.168147 578.109064 749.502239 576.897174 724.879266 571.659743 712.967046 558.732917 713.77967 538.144881 716.20345 515.950385 732.549872 504.038165 762.823633 502.422312 794.70855 501.619083 813.281468 514.13255 818.532991 539.962716L788.860477 545.411523ZM775.045872 272.440367C782.829211 272.440367 789.137615 278.748771 789.137615 286.53211 789.137615 294.31545 782.829211 300.623853 775.045872 300.623853L746.862385 300.623853C739.079046 300.623853 732.770642 294.31545 732.770642 286.53211 732.770642 278.748771 739.079046 272.440367 746.862385 272.440367L775.045872 272.440367ZM760.954128 244.256881C737.60411 244.256881 718.678899 225.33167 718.678899 201.981651L718.678899 145.614679C718.678899 122.264661 737.60411 103.33945 760.954128 103.33945 784.304147 103.33945 803.229358 122.264661 803.229358 145.614679L803.229358 201.981651C803.229358 225.33167 784.304147 244.256881 760.954128 244.256881ZM775.045872 145.614679C775.045872 137.831339 768.737468 131.522936 760.954128 131.522936 753.170789 131.522936 746.862385 137.831339 746.862385 145.614679L746.862385 201.981651C746.862385 209.764991 753.170789 216.073394 760.954128 216.073394 768.737468 216.073394 775.045872 209.764991 775.045872 201.981651L775.045872 145.614679ZM645.965505 639.873174C612.056073 640.267743 591.867303 625.537174 585.413284 595.672073L615.081101 589.612624C617.504881 608.185541 627.589872 617.467303 645.35956 617.467303 658.680954 617.072734 665.73622 611.619229 666.548844 601.120881 666.94811 593.854239 662.311927 588.20345 652.621505 584.163817 642.527119 580.532844 633.644624 578.109064 625.983413 576.897174 601.355743 571.659743 589.443523 558.732917 590.256147 538.144881 592.679927 515.950385 609.026349 504.038165 639.304807 502.422312 671.185028 501.619083 689.757945 514.13255 695.009468 539.962716L665.341651 545.411523C663.317138 532.498789 655.045284 526.035376 640.512 526.035376 628.801761 526.444037 622.545028 530.680954 621.741798 538.750826 620.929174 546.017468 628.801761 551.466275 645.35956 555.101945 658.272294 557.929688 668.765945 561.560661 676.845211 565.99956 690.969835 574.078826 698.236477 585.375706 698.64044 599.908991 697.433248 625.739156 679.870239 639.055853 645.965505 639.873174ZM579.964477 637.449394 546.660991 637.449394 536.970569 608.387523 486.108771 608.387523 476.423046 637.449394 443.725505 637.449394 493.375413 504.240147 529.708624 504.240147 579.964477 637.449394ZM511.53967 527.853211 510.933725 527.853211C510.529761 532.301505 509.515156 536.331743 507.908697 539.962716L492.769468 585.375706 531.521761 585.375706 514.569394 539.356771C513.357505 535.326532 512.347596 531.484183 511.53967 527.853211ZM438.882642 613.83633 438.882642 637.449394 340.184073 637.449394 340.184073 504.240147 370.457835 504.240147 370.457835 613.83633 438.882642 613.83633ZM681.100917 300.623853 295.926606 300.623853C288.143266 300.623853 281.834862 294.31545 281.834862 286.53211 281.834862 278.748771 288.143266 272.440367 295.926606 272.440367L681.100917 272.440367C688.884257 272.440367 695.192661 278.748771 695.192661 286.53211 695.192661 294.31545 688.884257 300.623853 681.100917 300.623853ZM328.807339 164.40367 695.192661 164.40367 695.192661 192.587156 328.807339 192.587156 328.807339 164.40367ZM267.522349 615.043523C284.070752 614.648954 293.756477 604.751853 296.588917 585.375706L325.650789 594.460183C318.783413 624.733945 299.407266 639.873174 267.522349 639.873174 226.350972 637.848661 204.74833 614.846239 202.733211 570.842422 204.74833 527.655927 226.350972 504.846092 267.522349 502.422312 296.588917 503.234936 315.556404 516.753615 324.438899 542.99244L295.377028 549.653138C291.337394 535.932477 282.055633 528.665835 267.522349 527.853211 246.934312 529.065101 236.036697 543.396404 234.824807 570.842422 235.628037 598.697101 246.530349 613.437064 267.522349 615.043523ZM263.045872 244.256881C239.695853 244.256881 220.770642 225.33167 220.770642 201.981651L220.770642 145.614679C220.770642 122.264661 239.695853 103.33945 263.045872 103.33945 286.39589 103.33945 305.321101 122.264661 305.321101 145.614679L305.321101 201.981651C305.321101 225.33167 286.39589 244.256881 263.045872 244.256881ZM277.137615 145.614679C277.137615 137.831339 270.829211 131.522936 263.045872 131.522936 255.262532 131.522936 248.954128 137.831339 248.954128 145.614679L248.954128 201.981651C248.954128 209.764991 255.262532 216.073394 263.045872 216.073394 270.829211 216.073394 277.137615 209.764991 277.137615 201.981651L277.137615 145.614679Z" p-id="1019" fill="#ffffff"></path></svg>