<?xml version="1.0" standalone="no"?><!DOCTYPE svg PUBLIC "-//W3C//DTD SVG 1.1//EN" "http://www.w3.org/Graphics/SVG/1.1/DTD/svg11.dtd"><svg t="1500703375204" class="icon" style="" viewBox="0 0 1045 1024" version="1.1" xmlns="http://www.w3.org/2000/svg" p-id="28129" xmlns:xlink="http://www.w3.org/1999/xlink" width="204.1015625" height="200"><defs><style type="text/css"></style></defs><path d="M457.6 119.7696V103.424a49.2032 49.2032 0 0 0-49.024-49.024H245.1456a49.216 49.216 0 0 0-49.0368 49.024v16.3456H0v130.7392h196.1088v16.3328a49.216 49.216 0 0 0 49.0368 49.0368H408.576a49.216 49.216 0 0 0 49.024-49.0368v-16.3328h588.352V119.7696H457.6zM261.4784 250.5216V119.7696h130.7392v130.7392H261.4784z m588.3264 179.7632a49.2032 49.2032 0 0 0-49.0112-49.0368H637.376a49.1904 49.1904 0 0 0-49.024 49.0368v16.3328H0v130.752h588.352v16.3328a49.2032 49.2032 0 0 0 49.024 49.0368h163.4304a49.2032 49.2032 0 0 0 49.0112-49.0368v-16.3328h196.1344V446.6304H849.8048v-16.3456z m-196.096 147.0848V446.6304h130.7392v130.752H653.7088zM457.6 757.1456a49.216 49.216 0 0 0-49.024-49.0368H245.1456a49.216 49.216 0 0 0-49.0368 49.0368v16.3328H0v130.752h196.1088v16.32a49.216 49.216 0 0 0 49.0368 49.0368H408.576a49.216 49.216 0 0 0 49.024-49.0368v-16.32h588.352V773.4912H457.6v-16.3456zM261.4784 904.2432V773.4912h130.7392v130.752H261.4784z" fill="#9ba3af" p-id="28130"></path></svg>