<?xml version="1.0" standalone="no"?><!DOCTYPE svg PUBLIC "-//W3C//DTD SVG 1.1//EN" "http://www.w3.org/Graphics/SVG/1.1/DTD/svg11.dtd"><svg t="1499669343966" class="icon" style="" viewBox="0 0 1024 1024" version="1.1" xmlns="http://www.w3.org/2000/svg" p-id="4812" xmlns:xlink="http://www.w3.org/1999/xlink" width="200" height="200"><defs><style type="text/css"></style></defs><path d="M387.116223 410.124751c2.811022 10.966773 5.761214 19.764136 8.853645 26.304086 3.054569 6.601348 6.777357 11.200086 11.121292 13.811564 4.366448 2.622734 9.587356 3.182482 15.600303 1.606591 9.110495-2.346441 14.317077-7.823176 15.576767-16.45067 1.289366-8.589632-0.228197-21.269419-4.539386-38.043455-0.858554-3.396353-1.782599-6.435573-2.713808-9.438976-3.487428-11.126408-7.314593-19.378349-11.538801-24.448832-5.327332-6.465249-12.364609-8.556886-21.132296-6.305613-5.936199 1.511423-10.197246 4.476965-12.798491 8.905834-2.588965 4.419659-3.689019 10.19827-3.235694 17.397229 0.092098 1.326205 0.424672 3.007497 0.592494 4.451382C383.623679 394.288065 384.880299 401.483954 387.116223 410.124751z" p-id="4813" fill="#ffffff"></path><path d="M624.958166 530.159592c5.482875 6.728238 12.661368 8.954953 21.547759 6.686283 8.975419-2.306532 14.146185-7.806803 15.476483-16.501836 1.290389-8.67866-0.180102-21.339004-4.455475-38.001499-4.071735-15.909341-8.81783-27.084868-14.182001-33.534767-5.322216-6.443759-12.379958-8.546653-21.12718-6.268774-6.16849 1.575892-10.530844 4.52506-13.081946 8.854669-2.570545 4.364401-3.667529 10.078543-3.38919 17.169031 0.316202 7.072069 1.855254 15.978926 4.629437 26.703175C614.618681 511.786129 619.471199 523.435447 624.958166 530.159592z" p-id="4814" fill="#ffffff"></path><path d="M889.235179 492.454852c-10.809183 20.081361-25.758664 37.757952-44.723597 52.17736l7.437389 28.913517c5.206582 20.183691 2.204202 41.162492-8.378831 59.116399-10.616802 17.944697-27.561729 30.67872-47.747467 35.865859L266.943236 804.601104c-4.712325 1.245364-9.55154 1.853208-14.426571 2.153036l0 12.137435c0 16.798595 13.623275 30.42187 30.426987 30.42187l546.109866 0c16.806781 0 30.42187-13.623275 30.42187-30.42187l0-65.177442c64.319911-11.636015 103.07661-61.172221 103.07661-135.082558C962.551998 556.965098 935.499875 512.345877 889.235179 492.454852z" p-id="4815" fill="#ffffff"></path><path d="M255.065721 758.49809l528.917298-136.061862c16.272615-4.191462 26.058492-20.763906 21.86089-37.033451l-16.236799-63.139016c38.803771-17.841344 62.901609-48.679699 69.868277-87.860047 3.689019-20.767999 2.675946-43.868113-3.699252-68.654636-1.130753-4.328585-2.37407-8.563026-3.721765-12.674671-0.455371-1.396813-0.99363-2.690272-1.478677-4.03285-0.931209-2.675946-1.870604-5.346775-2.918469-7.898901-0.629333-1.553379-1.327228-3.000334-1.99647-4.503571-1.006933-2.272763-1.990331-4.52506-3.036149-6.670933-0.76748-1.52575-1.606591-2.986007-2.426259-4.486174-1.065262-2.00875-2.109034-3.981684-3.247974-5.878894-0.893346-1.490957-1.832741-2.90619-2.755764-4.340865-1.161453-1.77032-2.328022-3.551896-3.547803-5.254677-0.995677-1.400906-2.025123-2.727111-3.076058-4.069689-1.239224-1.606591-2.495844-3.213181-3.78521-4.735861-1.101077-1.274016-2.220574-2.51017-3.357468-3.737114-1.341554-1.437745-2.688225-2.880607-4.101411-4.240581-1.171686-1.172709-2.394537-2.299369-3.631714-3.388167-1.417279-1.310855-2.868327-2.552126-4.351098-3.756557-1.272993-1.036609-2.566452-2.056845-3.897773-3.03001-1.499144-1.143033-3.051499-2.234901-4.606925-3.27151-1.381463-0.908696-2.759857-1.803066-4.139274-2.65855-1.606591-0.974188-3.267417-1.902326-4.904707-2.801812-1.417279-0.777713-2.88163-1.544169-4.334725-2.263553-1.692548-0.818645-3.457752-1.569752-5.200442-2.335185-1.484817-0.613984-2.973728-1.242294-4.510734-1.818415-1.796926-0.671289-3.647063-1.290389-5.51869-1.865487-1.51654-0.503467-3.071965-0.998747-4.608971-1.417279-1.954515-0.523933-3.911076-0.959861-5.867638-1.39579-1.568728-0.342808-3.107781-0.697895-4.712325-0.99977-2.065032-0.363274-4.177136-0.605797-6.28617-0.887206-1.560542-0.173962-3.113921-0.437975-4.701069-0.559748-2.252297-0.211824-4.523013-0.258896-6.809079-0.36532-1.518586-0.053212-3.02387-0.168846-4.560876-0.185218-3.737114 0-7.540743 0.106424-11.400654 0.38681l-16.228613-63.125713c-0.48607-1.892093-1.182942-3.698229-2.00875-5.412266-0.222057-0.518816-0.572028-1.016143-0.835018-1.52268-0.613984-1.153266-1.27504-2.251274-2.006703-3.281743-0.402159-0.550539-0.835018-1.047866-1.25969-1.569752-0.765433-0.911766-1.554402-1.780553-2.425236-2.584871-0.470721-0.470721-0.961908-0.941442-1.484817-1.342578-0.924045-0.772596-1.919722-1.502213-2.919493-2.152013-0.522909-0.332575-1.025353-0.697895-1.570775-0.977257-1.24127-0.728594-2.544963-1.328251-3.872191-1.860371-0.385786-0.127913-0.680499-0.300852-1.069355-0.429789-1.711991-0.606821-3.478218-1.077541-5.306866-1.351787-0.452301-0.047072-0.946558-0.047072-1.417279-0.095167-1.289366-0.154519-2.599198-0.228197-3.926426-0.215918-2.290159 0.062422-4.631484 0.294712-6.951319 0.89744L140.121829 311.684742c-16.275685 4.145413-26.072819 20.753673-21.883403 37.022195l16.208147 62.955844c-60.059887 27.124777-85.5924 84.989673-67.063395 156.931169 1.121544 4.366448 2.357697 8.593725 3.720741 12.71151 0.455371 1.340531 0.941442 2.584871 1.394766 3.864004 0.985444 2.759857 1.955538 5.492084 3.00852 8.103562 0.62831 1.502213 1.290389 2.88163 1.955538 4.368494 1.00898 2.281973 2.00875 4.608971 3.145643 6.843872 0.728594 1.466398 1.515516 2.898003 2.302439 4.347005 1.116427 2.044566 2.199085 4.107551 3.385097 6.077416 0.840134 1.432629 1.786693 2.786463 2.653433 4.155646 1.205455 1.855254 2.394537 3.705392 3.668553 5.450129 0.946558 1.346671 1.956561 2.636037 2.956332 3.911076 1.304715 1.675152 2.600221 3.330862 3.964288 4.915963 1.063215 1.215688 2.145873 2.4017 3.228531 3.584642 1.39579 1.50733 2.791579 2.990101 4.243651 4.409426 1.153266 1.096984 2.320858 2.182712 3.510964 3.243881 1.485841 1.346671 2.987031 2.638083 4.54041 3.911076 1.238201 0.979304 2.494821 1.940189 3.75451 2.88163 1.573845 1.189082 3.178389 2.323928 4.820796 3.388167 1.290389 0.909719 2.620687 1.750877 3.946892 2.569522 1.691525 1.016143 3.419889 1.971911 5.164626 2.89698 1.364067 0.7552 2.728134 1.469468 4.121877 2.15099 1.820462 0.873903 3.637854 1.639337 5.487991 2.426259 1.393743 0.593518 2.829442 1.220804 4.261047 1.728364 1.917676 0.735757 3.873214 1.348718 5.845125 1.940189 1.051959 0.331551 2.062985 0.660032 3.130294 0.961908 0.402159 0.12075 0.802272 0.273223 1.219781 0.379647 2.064009 0.560772 4.212952 0.998747 6.324032 1.469468 1.430582 0.296759 2.826372 0.644683 4.296863 0.889253 2.304486 0.384763 4.683672 0.680499 7.05672 0.959861 1.325182 0.138146 2.616594 0.349971 3.979638 0.487094 2.880607 0.248663 5.835915 0.334621 8.800433 0.38681 0.87288 0.036839 1.714038 0.106424 2.623757 0.106424 3.910053 0 7.907087-0.121773 11.938913-0.455371l16.208147 62.977333c0.491187 1.902326 1.173732 3.683902 1.9934 5.376451 0.242524 0.545422 0.576121 1.031493 0.838088 1.555425 0.206708 0.400113 0.471744 0.74906 0.699941 1.099031 0.417509 0.734734 0.835018 1.469468 1.325182 2.15099 0.404206 0.575098 0.841158 1.101077 1.258667 1.606591 0.76748 0.909719 1.555425 1.760087 2.394537 2.564405 0.487094 0.475837 0.995677 0.928139 1.51654 1.364067 0.909719 0.771573 1.888 1.469468 2.89698 2.113127 0.521886 0.333598 1.031493 0.697895 1.574868 1.030469 1.252527 0.698918 2.584871 1.311879 3.943822 1.834788 0.317225 0.137123 0.62831 0.295735 0.978281 0.433882 1.713015 0.598634 3.508917 1.051959 5.343705 1.309832 0.416486 0.069585 0.857531 0.069585 1.296529 0.121773 1.343601 0.144286 2.667759 0.243547 4.03285 0.195451 1.449002-0.020466 2.918469-0.318248 4.379751-0.559748C253.37522 758.686379 254.216377 758.726288 255.065721 758.49809zM641.93277 417.541675c7.963369 1.088798 15.281031 3.953032 21.915126 8.547677 6.616698 4.593622 12.30935 11.005658 17.076934 19.192108 4.699022 8.15575 8.612145 18.178011 11.650341 30.019711 6.057973 23.533996 5.382591 42.3659-2.007727 56.512085-7.421017 14.130835-20.135596 23.506367-38.142715 28.1532-11.190877 2.879584-21.880333 2.988054-31.93841 0.318248-10.096962-2.660596-18.933211-8.454556-26.583448-17.385972-7.611352-8.970302-13.359262-20.959358-17.237593-36.002982-6.196119-24.046672-6.233981-43.329854-0.192382-57.82294 6.079462-14.546298 19.087731-24.327058 39.068807-29.480428C625.129058 417.112909 633.934608 416.432411 641.93277 417.541675zM555.325249 304.331263c1.556449-5.239328 3.041266-9.292644 4.456498-12.120039 1.477654-2.759857 4.118807-4.662183 7.9296-5.649674 3.667529-0.937348 6.946202-0.635473 9.810437 0.951675 2.834558 1.564635 4.715395 4.13825 5.626137 7.68503 0.665149 2.599198-0.349971 8.117888-3.042289 16.571421l-23.834848 76.144214-66.313312 211.883735c-2.197038 7.801686-5.798053 12.338003-10.686387 13.595646-2.866281 0.728594-5.973038 0.38067-9.360182-1.051959-3.38919-1.431605-5.519714-3.847631-6.427386-7.316639-0.661056-2.584871-0.243547-6.051833 1.293459-10.370185l64.47443-206.740598L555.325249 304.331263zM348.660376 380.175649c1.062192-11.698436 5.148253-21.423939 12.31242-29.179576 7.123234-7.754614 17.35732-13.363356 30.682813-16.767895 9.621125-2.463098 18.421558-3.160993 26.471908-2.090615 8.036024 1.098008 15.387455 4.057409 21.989827 8.852622 6.634094 4.798283 12.310374 11.242042 17.026792 19.37221 4.381797 7.53972 7.943926 16.826224 10.882861 27.551496 0.24457 0.856507 0.540306 1.517563 0.75213 2.393513 6.057973 23.523763 5.390777 42.384319-2.007727 56.512085-7.424086 14.130835-20.119223 23.50739-38.113039 28.184923-11.106965 2.829442-21.689998 2.950192-31.779797 0.344854-10.042727-2.596128-18.898419-8.433066-26.479071-17.528212-7.594979-9.114588-13.304004-21.107737-17.146519-36.030611-3.266393-12.621459-4.821819-23.898293-4.856611-33.876552C348.397387 385.274784 348.432179 382.64898 348.660376 380.175649zM232.020866 511.664356c2.87856-4.456498 8.169053-7.670703 15.855106-9.658987l49.212842-12.659321c7.717775-1.9934 13.903661-1.696642 18.580171 0.794086 4.679579 2.50403 7.754614 6.554276 9.188266 12.163017 1.394766 5.501294 0.698918 10.497075-2.166339 14.910595-2.828418 4.429893-8.157797 7.668657-15.926738 9.67843l-49.213865 12.650111c-7.495718 1.928932-13.637602 1.65264-18.405185-0.809435-4.789073-2.478448-7.896854-6.465249-9.314133-11.983939C228.402455 521.162684 229.116723 516.098341 232.020866 511.664356z" p-id="4816" fill="#ffffff"></path></svg>