<?xml version="1.0" standalone="no"?><!DOCTYPE svg PUBLIC "-//W3C//DTD SVG 1.1//EN" "http://www.w3.org/Graphics/SVG/1.1/DTD/svg11.dtd"><svg t="1499669450620" class="icon" style="" viewBox="0 0 1024 1024" version="1.1" xmlns="http://www.w3.org/2000/svg" p-id="5641" xmlns:xlink="http://www.w3.org/1999/xlink" width="200" height="200"><defs><style type="text/css"></style></defs><path d="M608.032 324.32l-168.256 0c-31.296 0-56.736-23.968-56.736-53.408l0-58.56c0-29.824 24.288-54.08 54.112-54.08l5.152 0c8.96-34.048 42.112-59.424 81.6-59.424s72.64 25.376 81.6 59.424l5.184 0c29.824 0 54.08 24.288 54.08 54.08l0 58.56C664.768 300.352 639.296 324.32 608.032 324.32zM437.152 206.272c-3.36 0-6.112 2.72-6.112 6.08l0 58.56c0 2.208 3.392 5.408 8.736 5.408l168.256 0c5.344 0 8.736-3.2 8.736-5.408l0-58.56c0-3.36-2.72-6.08-6.08-6.08l-26.816 0c-13.248 0-24-10.752-24-24L559.872 176.704c0-16.48-16.128-29.888-35.968-29.888-19.84 0-35.968 13.408-35.968 29.888l0 5.568c0 13.248-10.752 24-24 24L437.152 206.272z" p-id="5642" fill="#ffffff"></path><path d="M762.432 941.184 285.408 941.184c-78.144 0-141.728-63.552-141.728-141.728L143.68 365.024c0-78.144 63.552-141.728 141.728-141.728l46.24 0c13.248 0 24 10.752 24 24 0 13.248-10.752 24-24 24L285.408 271.296c-51.68 0-93.728 42.016-93.728 93.728l0 434.432c0 51.68 42.016 93.728 93.728 93.728l477.024 0c51.68 0 93.728-42.016 93.728-93.728L856.16 365.024c0-51.68-42.016-93.728-93.728-93.728L716.16 271.296c-13.248 0-24-10.752-24-24 0-13.248 10.752-24 24-24l46.272 0c78.144 0 141.728 63.552 141.728 141.728l0 434.432C904.16 877.6 840.576 941.184 762.432 941.184z" p-id="5643" fill="#ffffff"></path><path d="M506.944 762.208c-5.728 0-11.264-2.016-15.616-5.792l-143.68-123.232c-10.048-8.64-11.232-23.776-2.592-33.856 8.64-10.016 23.776-11.2 33.856-2.592l125.472 107.584 224.384-261.664c8.672-10.016 23.808-11.2 33.856-2.592 10.048 8.64 11.232 23.776 2.592 33.856l-240 279.872c-4.16 4.832-10.016 7.808-16.384 8.32C508.192 762.176 507.584 762.208 506.944 762.208z" p-id="5644" fill="#ffffff"></path></svg>