<?xml version="1.0" standalone="no"?><!DOCTYPE svg PUBLIC "-//W3C//DTD SVG 1.1//EN" "http://www.w3.org/Graphics/SVG/1.1/DTD/svg11.dtd"><svg t="1500821865218" class="icon" style="" viewBox="0 0 1024 1024" version="1.1" xmlns="http://www.w3.org/2000/svg" p-id="2505" xmlns:xlink="http://www.w3.org/1999/xlink" width="200" height="200"><defs><style type="text/css"></style></defs><path d="M256 256l128 0 0 128-128 0zM256 448l128 0 0 128-128 0zM256 640l128 0 0 128-128 0zM512 640l256 0 0 128-256 0zM960 0l-896 0c-35.36 0-64 28.608-64 64l0 896c0 35.36 28.608 64 64 64l896 0c35.36 0 64-28.64 64-64l0-896c0-35.36-28.64-64-64-64zM896 896l-768 0 0-768 768 0 0 768zM512 448l256 0 0 128-256 0zM512 256l256 0 0 128-256 0z" p-id="2506" fill="#9ba3af"></path></svg>