<?xml version="1.0" standalone="no"?><!DOCTYPE svg PUBLIC "-//W3C//DTD SVG 1.1//EN" "http://www.w3.org/Graphics/SVG/1.1/DTD/svg11.dtd"><svg t="1499669207278" class="icon" style="" viewBox="0 0 1024 1024" version="1.1" xmlns="http://www.w3.org/2000/svg" p-id="2974" xmlns:xlink="http://www.w3.org/1999/xlink" width="200" height="200"><defs><style type="text/css"></style></defs><path d="M88.05 0l0 1021.277 660.823 0 180.229-240.304L929.102 0 88.05 0zM883.048 751.368 722.563 965.353 134.105 965.353 134.105 55.925l748.943 0L883.048 751.368zM272.279 136.722l472.594 0 0 59.075L272.279 195.797 272.279 136.722zM272.279 313.947l295.369 0 0 59.075L272.279 373.022 272.279 313.947zM642.383 502.169 410.499 502.169c-81.215 0-147.027 65.795-147.027 146.955 0 81.18 65.827 146.955 147.027 146.955l231.884 0c81.22 0 147.035-65.795 147.035-146.955C789.418 567.944 723.583 502.169 642.383 502.169zM642.383 780.608 410.499 780.608c-72.665 0-131.557-58.855-131.557-131.485 0-72.62 58.89-131.485 131.557-131.485l231.884 0c72.665 0 131.56 58.86 131.56 131.485C773.943 721.743 715.053 780.608 642.383 780.608zM440.421 650.733c-4.767 21.1-12.422 40.155-22.972 57.345l10.55 6.805c10.207-17.355 18.205-37.78 23.652-61.6L440.421 650.733zM427.319 659.238c-8.337-10.375-16.677-19.91-25.012-28.415l0-13.1 19.737 0 0-11.74-19.737 0 0-32.16-12.082 0 0 32.16-20.762 0 0 11.74 20.762 0c-5.275 21.44-13.952 40.665-26.205 57.34l5.275 13.275c8.51-13.275 15.485-27.905 20.93-43.905l0 84.74 12.082 0 0-85.25c5.102 6.47 11.057 14.975 18.035 25.695L427.319 659.238zM434.124 583.524l77.59 0 0 11.57-77.59 0L434.124 583.524zM490.956 653.453c6.637 18.38 12.762 39.31 18.377 62.96l11.06-4.935c-5.105-21.775-11.23-42.37-18.377-61.595L490.956 653.453zM425.106 636.609l41.517 0 0 72.66c0 4.935-2.382 7.49-6.977 7.49-4.932 0-10.037-0.345-15.482-0.685l2.383 11.4 17.355 0c9.867 0 14.972-5.105 14.972-15.145l0-75.72 41.69 0 0-11.74-95.457 0L425.107 636.609zM536.559 723.218l11.575 4.935c9.525-22.115 18.37-45.6 26.205-70.785l-11.065-4.425C555.789 676.768 546.769 700.248 536.559 723.218zM650.558 683.403l32.68 0 0-11.4-32.68 0 0-23.31 32.335 0 0-11.405-32.335 0 0-23.31 35.91 0 0-11.57-38.285 0 4.59-1.705c-2.215-8.675-5.275-18.375-9.36-28.925l-11.74 3.405c3.915 8.675 7.15 17.695 9.87 27.225l-36.24 0c3.575-8.68 6.635-17.7 9.19-27.055l-11.745-2.385c-6.12 23.995-16.5 46.115-31.31 66.195l4.085 12.925c5.79-7.31 11.23-14.965 16.17-22.97l0 100.4 11.905 0 0-9.36 86.445 0 0-11.405-39.485 0L650.558 683.403zM638.823 708.753l-35.225 0 0-25.35 35.225 0L638.823 708.753zM638.823 672.003l-35.225 0 0-23.31 35.225 0L638.823 672.003zM638.823 637.289l-35.225 0 0-23.31 35.225 0L638.823 637.289zM573.483 617.724c-6.13-11.065-15.145-23.99-26.715-38.795l-10.38 6.465c11.4 14.465 20.42 27.565 26.885 39.305L573.483 617.724z" p-id="2975" fill="#ffffff"></path></svg>