<?xml version="1.0" standalone="no"?><!DOCTYPE svg PUBLIC "-//W3C//DTD SVG 1.1//EN" "http://www.w3.org/Graphics/SVG/1.1/DTD/svg11.dtd"><svg t="1499429185981" class="icon" style="" viewBox="0 0 1024 1024" version="1.1" xmlns="http://www.w3.org/2000/svg" p-id="4687" xmlns:xlink="http://www.w3.org/1999/xlink" width="200" height="200"><defs><style type="text/css"></style></defs><path d="M931.2 241.6h-70.4v-19.2l-24-9.6c-4.8-1.6-118.4-46.4-216-46.4-46.4 0-83.2 9.6-110.4 28.8-27.2-19.2-64-28.8-110.4-28.8-99.2 0-211.2 44.8-216 46.4l-24 9.6v19.2h-67.2c-16 0-28.8 12.8-28.8 28.8v520c0 16 12.8 28.8 28.8 28.8h840c16 0 28.8-12.8 28.8-28.8V270.4c-1.6-16-14.4-28.8-30.4-28.8z m-107.2 6.4v412.8c-57.6-19.2-211.2-65.6-294.4-16v-416c24-17.6 56-24 91.2-24 94.4 0 203.2 43.2 203.2 43.2z m-41.6 438.4H536c48-46.4 166.4-24 246.4 0zM400 204.8c35.2 0 68.8 6.4 91.2 24v416c-83.2-48-236.8-3.2-294.4 16V248c1.6 0 110.4-43.2 203.2-43.2z m86.4 481.6H240c80-24 198.4-46.4 246.4 0z m417.6 75.2h-784v-464H160V723.2h700.8V299.2h41.6v462.4h1.6z" fill="#ffffff" p-id="4688"></path></svg>