<?xml version="1.0" standalone="no"?><!DOCTYPE svg PUBLIC "-//W3C//DTD SVG 1.1//EN" "http://www.w3.org/Graphics/SVG/1.1/DTD/svg11.dtd"><svg t="1502610461401" class="icon" style="" viewBox="0 0 1024 1024" version="1.1" xmlns="http://www.w3.org/2000/svg" p-id="3138" xmlns:xlink="http://www.w3.org/1999/xlink" width="128" height="128"><defs><style type="text/css"></style></defs><path d="M926.999996 992.471v0.113a31.39 31.39 0 0 1-28.153 31.256c-1.055 0.1-2.126 0.16-3.21 0.16H198.680003c-54.957999 0-99.751999-44.4-100.636999-99.279999Q98.000004 923.900001 98.000004 923.071001V100.900009q0-0.83 0.043-1.649C98.928004 44.40001 143.724004 0.00001 198.680003 0.00001h598.856994a31.318 31.318 0 0 1 30.214 23c0.053 0.19 0.112 0.378 0.161 0.569 0.026 0.1 0.045 0.2 0.07 0.3a31.533 31.533 0 0 1 0.916 7.545V91.000009H828.999997v48h29v-0.038h37.356999c0.094 0 0.187-0.007 0.281-0.007A31.385 31.385 0 0 1 926.999996 170.380008v822.090992zM765.999998 91.000009h0.176V62.837009H198.680003a38.063 38.063 0 0 0 0 76.125H731.999998V139.000009h34V91.000009z m98.270999 110.799999H198.680003a99.893999 99.893999 0 0 1-37.959-7.474v728.744993a38.046 38.046 0 0 0 37.959 38.1h665.590994V201.800008zM227.900003 408.556006h0.727l465.781995-0.728h2.472a26.843 26.843 0 0 1 27.057 27.1c0 13.55-10.328 24.622-22.984 27.099999a14.106 14.106 0 0 1-5.527 0.728H227.900003a27.1 27.1 0 0 1 0-54.199999z m-17.6 163.017998a26.923 26.923 0 0 1 19.2-7.868h197.828998c15.128 0 27.784 11.947 27.784 27.1a26.844 26.844 0 0 1-27.057 27.1H225.568003a2.676 2.676 0 0 0-2.327-0.728c-11.929-3.206-20.657-13.55-20.657-26.223a26.616 26.616 0 0 1 7.71-19.381z m0.146 155.150999a26.582 26.582 0 0 1 19.055-7.867h104.146999l92.226999 2.331h2.472a27.12 27.12 0 0 1 3.2 54.047999h-3.927l-95.425999-2.331H225.568003a2.679 2.679 0 0 0-2.327-0.728c-11.929-3.206-20.657-13.549-20.657-26.221999a27.253 27.253 0 0 1 7.856-19.231zM563.999999 650.000004h98a10 10 0 0 1 9.999999 10v97.999999a10 10 0 0 1-9.999999 9.999999h-98a10 10 0 0 1-9.999999-9.999999v-97.999999a10 10 0 0 1 9.999999-10z m0 135.999998h98a10 10 0 0 1 9.999999 10v97.999999a10 10 0 0 1-9.999999 10h-98a10 10 0 0 1-9.999999-10v-97.999999a10 10 0 0 1 9.999999-10z m135.999999-135.999998h97.999999a10 10 0 0 1 10 10v97.999999a10 10 0 0 1-10 9.999999h-97.999999a10 10 0 0 1-10-9.999999v-97.999999a10 10 0 0 1 10-10z m0 135.999998h97.999999a10 10 0 0 1 10 10v97.999999a10 10 0 0 1-10 10h-97.999999a10 10 0 0 1-10-10v-97.999999a10 10 0 0 1 10-10z" p-id="3139" fill="#ffffff"></path></svg>