<?xml version="1.0" standalone="no"?><!DOCTYPE svg PUBLIC "-//W3C//DTD SVG 1.1//EN" "http://www.w3.org/Graphics/SVG/1.1/DTD/svg11.dtd"><svg t="1500703221892" class="icon" style="" viewBox="0 0 1024 1024" version="1.1" xmlns="http://www.w3.org/2000/svg" p-id="20081" xmlns:xlink="http://www.w3.org/1999/xlink" width="200" height="200"><defs><style type="text/css"></style></defs><path d="M966.4 876.8c0 38.4-44.8 89.6-83.2 89.6H704v57.6h179.2c83.2 0 140.8-51.2 140.8-134.4V704h-57.6v172.8zM966.4 147.2V320h57.6V134.4C1024 51.2 966.4 0 883.2 0H704v57.6h179.2c38.4 0 83.2 51.2 83.2 89.6zM57.6 876.8V704H0v185.6C0 966.4 57.6 1024 140.8 1024H320v-57.6H140.8c-38.4 0-83.2-51.2-83.2-89.6zM57.6 147.2c0-38.4 44.8-89.6 83.2-89.6H320V0H140.8C57.6 0 0 51.2 0 134.4V320h57.6V147.2zM838.4 492.8c-6.4-12.8-19.2-19.2-32-19.2h-108.8V185.6c0-38.4-32-76.8-76.8-76.8H396.8c-44.8 0-76.8 32-76.8 76.8v281.6H211.2c-12.8 0-25.6 6.4-32 19.2s-6.4 38.4 6.4 44.8l294.4 352c6.4 12.8 19.2 19.2 32 19.2s19.2-6.4 32-12.8l294.4-352c6.4-12.8 6.4-32 0-44.8z m-224 32c12.8 0 25.6 12.8 25.6 25.6 0 6.4-6.4 25.6-25.6 25.6H544v96c0 25.6-12.8 32-38.4 32-12.8 0-32-25.6-32-32V563.2h-64c-6.4 0-25.6-6.4-25.6-25.6s12.8-25.6 25.6-25.6h70.4v-19.2H409.6c-6.4 0-25.6-6.4-25.6-19.2s19.2-25.6 25.6-25.6h44.8l-51.2-96s-6.4-25.6 6.4-32c12.8-6.4 25.6 0 32 6.4 32 44.8 64 115.2 64 115.2s51.2-96 64-115.2c6.4-12.8 25.6-12.8 38.4-6.4 6.4 6.4 6.4 25.6 0 38.4L550.4 448h51.2c12.8 0 32 6.4 32 25.6s-6.4 19.2-19.2 19.2H544v32h70.4z" p-id="20082" fill="#9ba3af"></path></svg>