<?xml version="1.0" standalone="no"?><!DOCTYPE svg PUBLIC "-//W3C//DTD SVG 1.1//EN" "http://www.w3.org/Graphics/SVG/1.1/DTD/svg11.dtd"><svg t="1502610434588" class="icon" style="" viewBox="0 0 1024 1024" version="1.1" xmlns="http://www.w3.org/2000/svg" p-id="2411" xmlns:xlink="http://www.w3.org/1999/xlink" width="128" height="128"><defs><style type="text/css"></style></defs><path d="M333.541203 667.180472H214.551947c-19.400125 0-35.14669 15.793318-35.146691 35.194584 0 19.303198 15.744285 35.096517 35.146691 35.096516h118.988115c19.400125 0 35.14555-15.793318 35.14555-35.096516 0-19.398984-15.744285-35.194584-35.144409-35.194584zM452.529318 332.931136c19.400125 0 35.14669-15.744285 35.146691-35.097657 0-19.352232-15.745425-35.14441-35.146691-35.14441h-12.479572V226.420312c0-19.400125-15.744285-35.195724-35.14669-35.195724-19.400125 0-35.14441 15.793318-35.14441 35.195724v36.267617h-72.486201V226.420312c0-19.400125-15.745425-35.195724-35.14555-35.195724-19.353372 0-35.14669 15.793318-35.14669 35.195724v36.267617h-12.429399c-19.400125 0-35.14669 15.793318-35.14669 35.14441 0 19.352232 15.744285 35.098797 35.14669 35.098797h83.793533v72.48506h-83.793533c-19.400125 0-35.14669 15.793318-35.14669 35.14555 0 19.450298 15.744285 35.195724 35.14669 35.195724h83.793533v83.795813c0 19.398984 15.793318 35.194584 35.195723 35.194583 19.401265 0 35.14669-15.793318 35.146691-35.194583v-83.795813h83.842565c19.400125 0 35.14669-15.744285 35.146691-35.195724 0-19.352232-15.745425-35.14441-35.146691-35.14441H368.685612v-72.48734h83.842566zM571.468401 238.851991c-19.401265 0-35.097657 15.793318-35.097657 35.194584 0 19.353372 15.696392 35.14669 35.098797 35.14669h118.937942c19.401265 0 35.195724-15.793318 35.195724-35.14669 0-19.398984-15.792178-35.194584-35.195724-35.194584H571.467261z" p-id="2412" fill="#ffffff"></path><path d="M423.866441 875.420793l-3.069719-6.43592h-289.012027c-19.986245 0-36.266477-16.280232-36.266477-36.265336V119.818263c0-19.937212 16.281372-36.17069 36.266477-36.170691H773.177016c20.083171 0 36.267617 16.231198 36.267617 36.170691v295.637238l8.188579 2.437987c23.593051 7.0209 35.394138 17.061345 57.424962 29.88073l17.159412 9.9458V107.434477c0-58.739742-47.772223-106.558717-106.558717-106.558718H119.398628C60.610993 0.875759 12.842192 48.694735 12.842192 107.434477v737.668846c0 58.787635 47.769942 106.558717 106.556436 106.558717H483.629042l-15.697532-18.621292c-17.207305-20.472018-32.025657-32.270824-44.065069-57.619955z" p-id="2413" fill="#ffffff"></path><path d="M809.444633 738.538904H631.037149c-1.073033-0.088944-2.337639-0.088944-6.043652 0h-5.946726c-16.476365 0-30.808944 10.992606-33.440784 24.217942-0.87804 2.143786-1.071893 3.842851-1.071893 3.842851l-0.58498 4.199768c0 3.03665 0 11.347243 56.739634 89.979724 1.853007 2.862183 6.433639 7.776927 16.769426 7.686842 7.019759 0 15.109131-2.235011 23.104997-6.343554 5.068686-2.591929 17.353265-9.918432 20.377372-20.194922 1.16996-4.289853 0.58384-8.400677-1.656873-11.88547l-17.452472-27.074424h127.615715c19.402405 0 35.195724-14.473978 35.195724-32.165915-0.002281-17.875528-15.795599-32.262842-35.198004-32.262842z" p-id="2414" fill="#ffffff"></path><path d="M714.195528 429.204241c-163.589131 0-296.860793 133.173595-296.860793 296.96 0 163.689479 133.270521 296.96 296.860793 296.96 163.787546 0 296.96114-133.270521 296.96114-296.96 0-163.786405-133.173595-296.96-296.96114-296.96z m-0.380864 513.144873c-119.371261 0-216.659243-97.289122-216.659243-216.660383 0-119.47731 97.287982-216.662664 216.659243-216.662664 119.47731 0 216.659243 97.185354 216.659242 216.662664 0 119.37012-97.184214 216.659243-216.659242 216.659242z" p-id="2415" fill="#ffffff"></path><path d="M787.802655 579.610227c-1.853007-2.857621-6.433639-7.67886-16.671359-7.67886-7.019759 0-15.208339 2.232731-23.203064 6.340134-10.529639 5.444989-18.230165 13.033764-20.277025 20.265621-1.270307 4.109684-0.779973 8.392695 1.556526 11.786263l17.452472 26.962673H619.04335c-19.398984 0-35.094236 14.464855-35.094236 32.320998 0 17.678254 15.692971 32.141969 35.094236 32.141968l182.135162 0.177889 8.267261-0.177889c16.474085 0 30.807804-10.892258 33.53771-24.465389 0.681906-1.874673 0.976107-3.481372 0.976107-3.749345l0.680766-3.927234c0-3.123314 0-11.427065-56.837701-89.996829z m13.347349 111.910201h0.015965l-0.004561 0.053594-0.011404-0.052454z" p-id="2416" fill="#ffffff"></path></svg>