<?xml version="1.0" standalone="no"?><!DOCTYPE svg PUBLIC "-//W3C//DTD SVG 1.1//EN" "http://www.w3.org/Graphics/SVG/1.1/DTD/svg11.dtd"><svg t="1500702474908" class="icon" style="" viewBox="0 0 1024 1024" version="1.1" xmlns="http://www.w3.org/2000/svg" p-id="2378" xmlns:xlink="http://www.w3.org/1999/xlink" width="200" height="200"><defs><style type="text/css"></style></defs><path d="M536.196075 313.376267c51.218522 0 92.738148-42.787502 92.738148-95.590102 0-29.704532-13.140275-56.241932-33.768082-73.782424 1.76418 6.01704 3.009544 12.276604 3.009544 18.893303 0 36.081777-28.367071 65.317635-63.36005 65.317634-35.001165 0-63.370283-29.235858-63.370283-65.317634 0-5.2864 0.766456-10.353812 1.926886-15.267729-18.337647 17.46272-29.90817 42.384319-29.908171 70.155827 0.001023 52.804646 41.519626 95.591125 92.732008 95.591125z m-2.952238-121.866559c34.129308 0 61.795415-28.514427 61.795414-63.70081 0-35.175127-27.66713-63.689554-61.795414-63.689555-34.130332 0-61.797461 28.514427-61.797462 63.689555 0 35.187407 27.666106 63.700811 61.797462 63.70081zM96.613408 762.792906L245.955738 822.389236c-12.045337-24.834618-60.223616-399.757636-60.223616-399.757636l-89.118714 340.161306z m606.996584 196.162682l9.643638-146.494469-334.815555 34.762735 325.171917 111.731734z m101.164051-806.966988l-162.325015 24.690332c9.770528 18.051121 15.388479 38.823214 15.388478 60.972676 0 69.2502-54.4491 125.393895-121.640408 125.393895-67.174935 0-121.633245-56.144718-121.633244-125.393895 0-9.184173 1.02126-18.116613 2.827395-26.746154l-200.348004 30.468942c7.223518 193.671954 93.942579 578.535369 93.942579 578.535369l623.867833-109.252263c-43.360554-44.700061-130.079614-558.668902-130.079614-558.668902zM334.870814 457.883475l265.442558-39.347147 7.888667 29.53978L342.773807 487.434511l-7.902993-29.551036z m56.995085 223.963865l-9.642614-33.691334 326.68948-47.919382 9.651824 33.69031-326.69869 47.920406z m-19.790742-97.019661l-12.883425-33.43039 420.808068-57.049321 12.888542 33.42732-420.813185 57.052391z" p-id="2379" fill="#ffffff"></path></svg>