<?xml version="1.0" standalone="no"?><!DOCTYPE svg PUBLIC "-//W3C//DTD SVG 1.1//EN" "http://www.w3.org/Graphics/SVG/1.1/DTD/svg11.dtd"><svg t="1500799480061" class="icon" style="" viewBox="0 0 1024 1024" version="1.1" xmlns="http://www.w3.org/2000/svg" p-id="9073" xmlns:xlink="http://www.w3.org/1999/xlink" width="200" height="200"><defs><style type="text/css"></style></defs><path d="M828.125 1022.148H194.542C87.615 1022.148 0.13 934.685 0.13 827.785V194.363C0.13 87.464 87.616 0 194.542 0h633.583c106.926 0 194.412 87.463 194.412 194.363v633.422c0 106.9-87.486 194.363-194.412 194.363z" fill="#00D1A4" p-id="9074"></path><path d="M641.192 403.4c27.076 0 52.716 5.368 76.899 16.147 24.206 10.779 45.393 25.502 63.603 44.226 18.19 18.728 32.633 40.609 43.288 65.682 10.677 25.034 16.005 51.6 16.005 79.68 0 28.077-5.328 54.75-15.983 80.06-10.654 25.268-25.101 47.38-43.287 66.342-18.212 18.962-39.398 33.938-63.602 44.932-24.206 10.991-49.846 16.488-76.902 16.488-27.098 0-52.405-5.517-75.921-16.488-23.538-10.994-43.958-25.97-61.271-44.932-17.336-18.982-30.969-41.096-40.979-66.342-9.991-25.31-14.986-51.96-14.986-80.06 0-28.103 4.996-54.646 14.986-79.699 10.009-25.054 23.643-46.935 40.979-65.682 17.314-18.728 37.733-33.448 61.271-44.227 23.515-10.737 48.802-16.127 75.9-16.127zM751.08 586.68h-61.252l59.919-61.102-29.969-31.572-68.597 68.088 21.956 24.586h-71.904l21.312-30.187-63.292-64.596-25.288 35.814 57.276 58.97h-51.967v39.308h89.907V656.9h-89.907v33.723h89.907v63.189h33.967v-63.189h87.909V656.9h-87.909v-30.912h87.909V586.68h0.023zM757.74 211c11.55 0 22.414 2.321 32.633 7.031 10.197 4.665 19.083 10.991 26.638 18.958 7.536 7.948 13.427 17.194 17.651 27.739 4.205 10.526 6.326 21.881 6.326 34.046v103.921h-91.26c0-12.165-2.645-20.815-7.97-25.97-5.329-5.156-13.78-7.734-25.31-7.734H309.509c-11.55 0-21.645 4.219-30.302 12.635-8.657 8.436-12.989 18.724-12.989 30.912v264.024c0 12.165 4.332 22.603 12.989 31.253 8.657 8.651 18.752 12.974 30.302 12.974h138.527V817H258.914c-11.55 0-22.414-2.685-32.652-8.075-10.2-5.367-19.086-12.632-26.622-21.75-7.533-9.118-13.547-19.43-18-30.893-4.414-11.481-6.64-23.327-6.64-35.492V298.775c0-12.165 2.226-23.52 6.64-34.046 4.453-10.545 10.448-19.791 18-27.739 7.555-7.968 16.421-14.274 26.622-18.958 10.238-4.71 21.121-7.031 32.652-7.031H757.74V211z m0 0" fill="#FFFFFF" p-id="9075"></path></svg>