<?xml version="1.0" standalone="no"?><!DOCTYPE svg PUBLIC "-//W3C//DTD SVG 1.1//EN" "http://www.w3.org/Graphics/SVG/1.1/DTD/svg11.dtd"><svg t="1500796627131" class="icon" style="" viewBox="0 0 1024 1024" version="1.1" xmlns="http://www.w3.org/2000/svg" p-id="2380" xmlns:xlink="http://www.w3.org/1999/xlink" width="200" height="200"><defs><style type="text/css"></style></defs><path d="M907.162112 1024H115.347382a113.1005 113.1005 0 0 1-113.1005-113.1005V119.107017A113.1005 113.1005 0 0 1 115.347382 6.006517h791.792483a113.122746 113.122746 0 0 1 113.122746 113.1005v791.81473a113.1005 113.1005 0 0 1-113.100499 113.078253zM680.938866 515.003259a28.297371 28.297371 0 0 0 0-56.572496h-141.420117v-16.217598l133.21121-133.21121a28.519835 28.519835 0 0 0-40.310407-40.332652l-121.153682 121.131436-121.153682-121.131436a28.542081 28.542081 0 0 0-40.332653 40.332652l133.21121 133.21121v16.217598H341.592874a28.252879 28.252879 0 1 0 0 56.572496h141.375625v56.528003H341.592874a28.252879 28.252879 0 1 0 0 56.55025h141.375625v113.1005a28.297371 28.297371 0 0 0 56.528003 0v-113.1005h141.420118a28.297371 28.297371 0 0 0 0-56.55025h-141.420118V515.003259h141.442364z" fill="#FF5D38" p-id="2381"></path></svg>