<?xml version="1.0" standalone="no"?><!DOCTYPE svg PUBLIC "-//W3C//DTD SVG 1.1//EN" "http://www.w3.org/Graphics/SVG/1.1/DTD/svg11.dtd"><svg t="1500799319805" class="icon" style="" viewBox="0 0 1024 1024" version="1.1" xmlns="http://www.w3.org/2000/svg" p-id="4605" xmlns:xlink="http://www.w3.org/1999/xlink" width="200" height="200"><defs><style type="text/css"></style></defs><path d="M446.629647 585.863529c-31.638588 23.04-50.100706 16.203294-62.599529-4.201411l-55.642353-136.116706c-6.806588-21.970824 1.536-29.455059 25.042823-22.452706l51.471059 46.305882c22.256941 20.419765 44.513882 17.588706 66.770824 4.216471L794.503529 320.286118C731.632941 245.022118 628.359529 195.764706 512 195.764706c-190.765176 0-346.352941 132.382118-346.352941 294.686118 0 93.982118 52.178824 177.92 133.135059 231.936a83.727059 83.727059 0 0 1 2.725647 30.945882l-14.908236 52.630588c-6.957176 23.311059-0.496941 28.325647 19.380706 15.043765l67.087059-42.104471a138.480941 138.480941 0 0 1 29.620706-8.869647 399.344941 399.344941 0 0 0 109.327059 15.104c190.765176 0 346.352941-132.382118 346.352941-294.686117 0-47.676235-13.432471-92.747294-37.225412-132.668236l-374.512941 228.080941z" fill="none" p-id="4606"></path><path d="M783.058824 0H240.941176C107.866353 0 0 107.866353 0 240.941176v542.117648c0 133.074824 107.866353 240.941176 240.941176 240.941176h542.117648c133.074824 0 240.941176-107.866353 240.941176-240.941176V240.941176c0-133.074824-107.866353-240.941176-240.941176-240.941176zM512 785.121882c-38.174118 0-74.932706-5.315765-109.327059-15.104a138.119529 138.119529 0 0 0-29.620706 8.869647l-67.087059 42.104471c-19.877647 13.296941-26.337882 8.282353-19.380705-15.043765l14.908235-52.630588a84.073412 84.073412 0 0 0-2.725647-30.945882C217.825882 668.370824 165.647059 584.417882 165.647059 490.450824 165.647059 328.146824 321.234824 195.764706 512 195.764706c116.359529 0 219.632941 49.257412 282.488471 124.506353L471.657412 473.6c-22.256941 13.387294-44.513882 16.203294-66.770824-4.216471l-51.471059-46.305882c-23.506824-7.002353-31.849412 0.481882-25.042823 22.452706l55.642353 136.116706c12.483765 20.419765 30.960941 27.256471 62.599529 4.201412l374.497883-228.080942c23.792941 39.905882 37.225412 84.992 37.225411 132.668236C858.352941 652.754824 702.765176 785.121882 512 785.121882z" fill="#59B64C" p-id="4607"></path></svg>