<?xml version="1.0" standalone="no"?><!DOCTYPE svg PUBLIC "-//W3C//DTD SVG 1.1//EN" "http://www.w3.org/Graphics/SVG/1.1/DTD/svg11.dtd"><svg t="1500797058270" class="icon" style="" viewBox="0 0 1024 1024" version="1.1" xmlns="http://www.w3.org/2000/svg" p-id="3928" xmlns:xlink="http://www.w3.org/1999/xlink" width="200" height="200"><defs><style type="text/css"></style></defs><path d="M283.529846 791.630769c-149.661538 0-173.292308-94.523077-165.415384-133.986461 7.876923-39.305846 51.2-90.584615 134.419692-90.584616 95.625846 0 181.248 24.457846 284.041846 74.515693-72.192 94.011077-160.886154 150.055385-253.046154 150.055384M1024 701.046154V196.883692A196.923077 196.923077 0 0 0 827.076923 0H196.883692A196.923077 196.923077 0 0 0 0 196.883692V827.076923A196.923077 196.923077 0 0 0 196.883692 1024H827.076923a197.080615 197.080615 0 0 0 193.851077-162.107077c-52.224-22.606769-278.528-120.32-396.406154-176.600615-89.718154 108.701538-183.689846 173.883077-325.316923 173.883077S63.015385 771.938462 74.358154 665.206154c7.483077-70.104615 55.532308-184.674462 264.349538-165.021539 110.001231 10.318769 160.374154 30.838154 250.092308 60.49477 23.236923-42.535385 42.496-89.403077 57.147077-139.264H248.123077V381.991385h196.844308V311.138462H204.8V267.815385h240.128V165.651692s2.166154-15.990154 19.849846-15.990154H563.2v118.153847h256V311.138462h-256V382.030769h208.856615a806.912 806.912 0 0 1-84.834461 212.676923c60.652308 21.937231 336.777846 106.338462 336.777846 106.338462" fill="#01ADF3" p-id="3929"></path></svg>