<?xml version="1.0" standalone="no"?><!DOCTYPE svg PUBLIC "-//W3C//DTD SVG 1.1//EN" "http://www.w3.org/Graphics/SVG/1.1/DTD/svg11.dtd"><svg t="1505740254255" class="icon" style="" viewBox="0 0 1073 1024" version="1.1" xmlns="http://www.w3.org/2000/svg" p-id="3105" xmlns:xlink="http://www.w3.org/1999/xlink" width="134.125" height="128"><defs></defs><path d="M660.454753 511.999732C680.706495 511.999732 697.076061 495.617262 697.076061 475.433418 697.076061 455.24246 680.706495 438.858565 660.454753 438.858565L549.338108 438.858565 549.338108 437.364203 685.064684 295.792666C699.02 281.166425 698.794821 258.015208 684.14687 244.086335 669.567325 230.185927 646.572122 230.699703 632.545544 245.362947L516.266914 367.402468 393.141743 244.704005C378.784526 230.40937 355.642529 230.479107 341.357997 244.776588 327.07489 259.079763 326.382255 282.226711 340.698141 296.488612L476.094073 432.061355 476.094073 438.857141 367.616853 438.857141C347.399315 438.857141 330.992697 455.24246 330.992697 475.430571 330.992697 495.615839 347.400741 511.998309 367.616853 511.998309L476.094073 511.998309 476.094073 585.14659 367.616853 585.14659C347.399315 585.14659 330.992697 601.492059 330.992697 621.71433 330.992697 641.938023 347.400741 658.287756 367.616853 658.287756L476.094073 658.287756 476.094073 767.016075C476.094073 787.239768 492.502117 803.585238 512.712526 803.585238 532.930065 803.585238 549.336685 787.239768 549.336685 767.016075L549.336685 658.287756 660.454753 658.287756C680.705072 658.287756 697.074634 641.9366 697.074634 621.71433 697.074634 601.490637 680.705072 585.14659 660.454753 585.14659L549.336685 585.14659 549.336685 511.998309 660.454753 511.999732 660.454753 511.999732ZM1024.752372 485.442793 1024.752372 510.895328 952.178173 510.895328C952.181019 511.26536 952.192422 511.633969 952.192422 512.004001 952.192422 753.982398 755.089248 950.835346 512.782361 950.873774 270.703505 950.909356 73.242611 753.746148 73.244036 512.002578 73.244036 270.00995 270.384265 73.141345 512.715377 73.141345 512.857896 73.141345 513.001838 73.147038 513.14578 73.147038L513.14578 0.005871C513.142934 0.003024 513.142934 0.001601 513.140083 0.000178 230.245627-0.233227 0.034204 229.498521 0 511.942801-0.031354 794.449705 229.818074 1024.016363 512.718228 1024.016363 795.443088 1024.013518 1025.43646 794.340122 1025.43646 512.005424 1025.43646 503.096185 1025.20273 494.239603 1024.75095 485.442793L1024.752372 485.442793 1024.752372 485.442793ZM1035.283385 161.505595 765.526197 161.505595C745.220298 161.505595 728.762371 145.067619 728.762371 124.791268 728.762371 104.513495 745.221721 88.076942 765.526197 88.076942L1035.281957 88.076942C1055.587856 88.076942 1072.047207 104.514918 1072.047207 124.791268 1072.04863 145.069042 1055.586433 161.505595 1035.283385 161.505595L1035.283385 161.505595ZM525.707278 73.090109 513.14578 73.090109 513.14578 0.004447 525.707278 0.004447C545.917688 0.004447 562.30293 16.366994 562.30293 36.54799 562.305781 56.728986 545.920538 73.092956 525.707278 73.092956L525.707278 73.090109 525.707278 73.090109ZM988.465987 473.775388 988.465987 473.775388C968.42517 473.775388 952.178173 489.999886 952.178173 510.012941L952.178173 510.895328 1024.752372 510.895328 1024.752372 510.012941C1024.752372 489.999886 1008.505375 473.775388 988.464559 473.775388L988.465987 473.775388 988.465987 473.775388Z" p-id="3106" fill="#ffffff"></path></svg>