<?xml version="1.0" standalone="no"?><!DOCTYPE svg PUBLIC "-//W3C//DTD SVG 1.1//EN" "http://www.w3.org/Graphics/SVG/1.1/DTD/svg11.dtd"><svg t="1505740268639" class="icon" style="" viewBox="0 0 1127 1024" version="1.1" xmlns="http://www.w3.org/2000/svg" p-id="3229" xmlns:xlink="http://www.w3.org/1999/xlink" width="140.875" height="128"><defs><style type="text/css"></style></defs><path d="M1119.071565 606.628582C1106.525824 589.09719 1082.271898 585.084134 1064.706227 597.75639L995.49545 648.026342C1007.414451 603.880704 1013.686758 558.256922 1013.686758 512 1013.686758 229.596979 786.192461 0 506.843366 0 227.284608 0 0 229.596979 0 512 0 794.403021 227.494272 1024 506.843366 1024 595.290445 1024 681.854925 1000.553805 758.17449 956.408166 762.355635 955.563187 766.329395 954.295731 770.093466 951.972634 791.83913 938.876749 812.748365 924.090931 832.19433 907.826995 848.712704 894.097946 851.222093 869.38432 837.421645 852.486067 823.830886 835.799629 799.366144 833.264717 782.63808 847.205581 767.374413 859.878963 750.856038 871.284915 733.919437 881.845888 731.410048 882.690867 728.692122 883.113344 726.182733 884.591462 660.109261 924.512256 584.206797 945.423539 506.633677 945.423539 269.939482 945.423539 77.571968 750.888218 77.571968 511.996544 77.571968 273.104896 270.148045 78.569549 506.84224 78.569549 743.536435 78.569549 935.903949 272.893056 935.903949 511.996544 935.903949 566.280678 925.867571 619.508045 906.631296 669.356672L851.639194 535.864064C843.274573 515.798912 820.483891 506.504243 800.829363 514.742118 780.966298 522.979994 771.55671 546.00256 779.920154 566.068864L867.530778 778.346266C868.367232 780.669363 869.830477 782.359322 871.085158 784.471731 871.503386 785.104896 871.503386 785.739187 871.921613 786.161664 872.130176 786.372352 872.33984 786.372352 872.33984 786.584166 875.684557 791.019674 879.867981 794.611379 884.677069 797.356954 885.513523 797.77943 886.349978 798.201933 887.186432 798.62441 891.159066 800.525005 895.551053 802.003123 900.150426 802.425626 900.98688 802.425626 901.61367 802.214963 902.450125 802.425626 902.868352 802.425626 903.07689 802.636288 903.495142 802.636288 904.331597 802.636288 905.168051 802.425626 906.004506 802.213811 908.932122 802.003123 911.858586 801.580646 914.577664 800.946355 915.204429 800.735667 915.832346 800.523853 916.250573 800.31319 919.386726 799.257549 922.314342 797.778278 925.033395 795.877683 925.451622 795.667021 925.86985 795.455181 926.288102 795.244518L1110.289869 661.541274C1127.644723 648.656051 1131.617331 624.155366 1119.072717 606.622822L1119.071565 606.628582ZM658.019251 341.968794C673.492608 326.972288 673.910835 302.047974 658.855706 286.417203 644.01024 270.786406 619.33696 270.363904 603.863603 285.572224L506.843366 380.198502 410.031693 285.572224C394.558336 270.575744 369.88503 270.786406 355.03959 286.417203 340.19415 302.047974 340.402688 326.972288 355.876045 341.968794L465.022669 448.424653 465.022669 471.448346 387.239885 471.448346C365.703885 471.448346 348.347904 488.979738 348.347904 510.736 348.347904 532.492237 365.702733 550.023654 387.239885 550.023654L465.022669 550.023654 465.022669 589.311309 387.239885 589.311309C365.703885 589.311309 348.347904 606.842701 348.347904 628.598938 348.347904 650.3552 365.702733 667.886592 387.239885 667.886592L465.022669 667.886592 465.022669 750.474931C465.022669 772.230042 482.377498 789.762586 503.914624 789.762586 525.45175 789.762586 542.806579 772.231194 542.806579 750.474931L542.806579 667.886592 620.589363 667.886592C642.125363 667.886592 659.481344 650.3552 659.481344 628.598938 659.481344 606.842701 642.126515 589.311309 620.589363 589.311309L542.806579 589.311309 542.806579 550.023654 620.589363 550.023654C642.125363 550.023654 659.481344 532.492237 659.481344 510.736 659.481344 488.979738 642.126515 471.448346 620.589363 471.448346L542.806579 471.448346 542.806579 454.551245 658.018099 341.969946 658.019251 341.968794Z" p-id="3230" fill="#ffffff"></path></svg>