<?xml version="1.0" standalone="no"?><!DOCTYPE svg PUBLIC "-//W3C//DTD SVG 1.1//EN" "http://www.w3.org/Graphics/SVG/1.1/DTD/svg11.dtd"><svg t="1500821743847" class="icon" style="" viewBox="0 0 1024 1024" version="1.1" xmlns="http://www.w3.org/2000/svg" p-id="1749" xmlns:xlink="http://www.w3.org/1999/xlink" width="200" height="200"><defs><style type="text/css"></style></defs><path d="M952.32 1003.52H81.92a61.44 61.44 0 0 1-61.44-61.44V71.68a61.44 61.44 0 0 1 61.44-61.44h870.4a61.44 61.44 0 0 1 61.44 61.44v870.4a61.44 61.44 0 0 1-61.44 61.44z m20.48-890.88a61.44 61.44 0 0 0-61.44-61.44H522.24v51.2h-20.48V51.2H122.88a61.44 61.44 0 0 0-61.44 61.44v389.12h40.96v20.48H61.44v378.88a61.44 61.44 0 0 0 61.44 61.44h378.88v-51.2h20.48v51.2h389.12a61.44 61.44 0 0 0 61.44-61.44V112.64z m-61.44 389.12h51.2v20.48h-51.2v-20.48z m-19.477-394.368l36.181-36.181 14.464 14.464-36.181 36.181-14.464-14.464z m-36.182 65.13l-14.464-14.463 36.182-36.182 14.464 14.464-36.182 36.182zM501.76 552.96h20.48v51.2h-20.48v-51.2z m20.48 194.56h-20.48v-51.2h20.48v51.2z m-20.48-122.88h20.48v51.2h-20.48v-51.2z m-167.04 68.864l-36.181 36.181-14.486-14.485 36.182-36.181 14.485 14.485z m-101.312 72.363l36.181-36.182 14.464 14.464-36.181 36.182-14.464-14.464z m607.83-578.859l-36.182 36.181-7.915-7.914a379.307 379.307 0 0 0-17.045 11.904l10.475 10.474-36.182 36.182-13.888-13.888a675.397 675.397 0 0 0-14.933 14.016l14.357 14.357-36.181 36.181-13.653-13.653a311.04 311.04 0 0 0-12.95 16l12.118 12.117-36.182 36.182-2.666-2.667c-7.19 17.344-11.008 34.432-11.008 51.243 26.624-36.864 48.298-65.024 65.024-84.48 16.725-19.456 31.744-29.184 45.056-29.184s33.941 9.386 61.952 28.16c27.989 18.773 41.984 38.4 41.984 58.88l-1.024 57.344c-0.448 14.976-0.683 30.933-0.854 47.338h39.296v20.48h-39.424l-0.042 6.934 1.024 72.704c0 66.218-25.28 111.978-75.776 137.216 64.149 10.24 101.888 27.818 113.152 52.736 11.264 24.917 16.896 45.909 16.896 62.976 0 15.018-6.315 22.528-18.944 22.528-0.192 0-0.448-0.064-0.64-0.086l-9.131 9.131-24.917-24.917a395.221 395.221 0 0 1-31.872-25.088c-31.744-27.307-52.907-47.958-63.488-61.952-10.582-13.974-21.334-25.6-32.256-34.816-10.923-9.216-16.384-15.702-16.384-19.456a10.453 10.453 0 0 1 0.362-2.347l-15.125-15.104c-54.677 82.901-114.923 124.459-180.821 124.459-28.011 0-41.984-4.779-41.984-14.336s8.874-17.046 26.624-22.528c1.258-0.363 2.41-0.811 3.648-1.195V768h20.48v13.675c30.805-12.886 55.594-31.787 74.197-56.918 16.192-21.909 31.147-46.997 45.013-74.901l-2.41-2.41 7.125-7.126c4.352-9.13 8.619-18.453 12.715-28.181-4.779-16.384-7.168-26.774-7.168-31.232 0-4.438 0.341-6.656 1.024-6.656 2.709 0 7.509 5.461 14.336 16.384 14.997-40.96 22.528-65.856 22.528-74.752 0-3.414-1.536-5.12-4.608-5.12-2.454 0-5.611 1.685-9.152 4.288v7.189h-7.552a24.107 24.107 0 0 0-4.288 7.979c-1.366 4.778-3.243 7.168-5.632 7.168-1.984 0-6.592-5.248-13.526-15.126h-6.165a1120.576 1120.576 0 0 0-18.859 77.035l19.179 19.179-14.485 14.485-9.174-9.195c-0.554 3.563-1.088 7.04-1.536 10.368-4.096 30.379-11.605 45.568-22.528 45.568-8.874 0-17.92-10.389-27.136-31.232-9.216-20.821-13.824-41.642-13.824-62.464 0-5.824 1.067-14.08 3.008-24.277l-15.68-15.68 14.486-14.485 6.442 6.442c1.216-4.928 2.603-10.24 4.075-15.786h-9.664v-20.48h15.403c5.077-17.728 11.157-37.654 18.432-60.31l-11.2 11.179c-4.096 16.747-18.496 33.899-43.115 51.499v18.09h-27.67c-8.81 5.227-16.96 9.472-24.533 12.907l6.422 6.421-36.182 36.182-0.661-0.683c-2.987 78.635-5.824 131.008-8.533 156.907-3.072 29.354-8.875 50.858-17.408 64.512-8.534 13.653-20.31 27.989-35.328 43.008s-26.475 22.528-34.304 22.528c-7.851 0-25.088-5.483-51.712-16.384-26.624-10.923-47.104-21.504-61.44-31.744a240.427 240.427 0 0 1-16.299-12.438l-27.563 27.563-14.485-14.485 36.181-36.182 12.608 12.63c20.011-1.494 40.726-4.502 62.272-9.323 22.87-5.12 38.4-11.776 46.592-19.968s15.872-24.405 23.04-48.64c5.91-19.947 9.238-40.128 10.283-60.544l-24.555 24.555-14.464-14.464 36.182-36.182 3.2 3.2a1803.136 1803.136 0 0 0-3.99-91.136c-25.941-5.461-38.912-9.557-38.912-12.288 0-2.709 11.947-3.733 35.84-3.072-0.448-1.002-1.173-1.92-1.856-2.837H337.92v-12.523a164.032 164.032 0 0 0-20.48-1.856v14.379h-35.264c-49.344 37.525-87.979 70.23-115.819 98.07-14.336 14.335-26.282 21.503-35.84 21.503-12.288 0-18.432-10.922-18.432-32.768 0-5.461 0.512-14.336 1.536-26.624 1.024-12.288 2.902-21.824 5.632-28.672 2.71-6.826 11.606-12.288 26.624-16.384 14.208-3.882 30.507-12.032 48.704-24.17V501.76h16.342c23.658-17.216 64.576-48.512 123.37-94.443-9.578-30.72-14.336-52.032-14.336-64 0-5.866 0.555-11.05 1.622-15.594l-1.131 1.13-9.493-9.493c-13.952 14.955-25.984 22.443-36.054 22.443-11.605 0-22.698-6.998-33.28-20.992-10.602-13.974-15.872-30.358-15.872-49.152 0-18.774 3.072-30.208 9.216-34.304 16.384-10.923 24.576-26.624 24.576-47.104 0-6.144 3.222-9.216 9.728-9.216s21.675 5.802 45.568 17.408c62.806-29.334 99.158-46.592 109.056-51.712 9.899-5.12 21.504-7.68 34.816-7.68s25.238 7.018 35.84 20.992c2.795 3.69 5.184 7.765 7.232 12.096V122.88h20.48v51.2h-19.733c2.71 6.187 4.672 13.035 5.952 20.48h13.781v51.2h-20.48v-2.837a40.747 40.747 0 0 1-6.72 6.698c-25.258 19.819-44.714 41.323-58.368 64.512 9.558 12.971 14.336 24.256 14.336 33.792 0 9.579-0.682 18.432-2.048 26.624 10.902-1.344 21.142-2.048 30.72-2.048 7.787 0 15.126 0.47 22.08 1.344V337.92h20.48v40.277a90.24 90.24 0 0 1 28.608 13.782c12.971 9.664 21.078 21.525 24.384 35.562l12.118 12.118c2.41-7.51 4.821-14.635 7.21-21.718l-6.613-6.613 13.76-13.781c19.605-54.4 38.997-94.998 58.176-121.302-24.576 8.896-44.203 13.312-58.88 13.312s-31.232-8-49.664-24.064c-18.432-16.021-27.648-27.136-27.648-33.28s9.557-9.216 28.672-9.216c19.115 0 45.397-6.997 78.848-20.992 33.43-13.973 63.488-30.549 90.112-49.664 21.141-14.997 36.501-22.528 46.08-22.528 11.605 0 26.453 3.414 44.544 10.24 18.07 6.827 27.136 16.896 27.136 30.208 0 4.16-1.088 8.086-2.71 11.904l4.843 4.843zM739.263 462.613c9.216 5.483 13.824 17.408 13.824 35.84s-12.97 71.68-38.912 159.744c10.901 10.923 20.992 16.384 30.208 16.384 9.216 0 15.872-2.709 19.968-8.192 4.096-5.461 7.85-19.968 11.264-43.52 3.413-23.552 5.12-47.765 5.12-72.704 0-8.277-0.256-17.813-0.64-27.925H768v-20.48h11.179a1912.832 1912.832 0 0 0-3.563-51.435c-3.435-41.642-10.603-62.464-21.504-62.464-4.096 0-11.115 2.923-20.992 8.704-9.899 5.803-26.453 24.064-49.664 54.784 27.99 2.048 46.592 5.824 55.808 11.264z m-283.605 81.003c-1.558 0.32-3.158 0.704-4.651 0.917l-0.128 3.883 4.779-4.8zM324.608 304.043l6.443 6.442c4.8-4.672 11.626-9.28 20.629-13.781 25.259-12.95 40.96-30.72 47.104-53.248-32.555 22.528-57.28 42.73-74.176 60.587z m161.216 108.394a152.533 152.533 0 0 0-57.045 10.774l-6.976 6.976-2.71-2.71c-9.877 4.8-19.413 10.624-28.501 17.707 27.99 17.067 45.056 33.13 51.2 48.128a194.133 194.133 0 0 0 23.403-19.733l-28.907-28.907 14.485-14.485 27.99 27.989c1.514-1.941 3.114-3.84 4.501-5.824 10.581-14.997 15.872-25.408 15.872-31.232 0-5.76-4.437-8.683-13.312-8.683z m230.677-129.664l0.363-0.362-0.363 0.362zM501.76 266.24h20.48v51.2h-20.48v-51.2z m-318.89-74.965l14.463-14.486 36.203 36.203-14.485 14.485-36.182-36.202z m-50.689-50.688l14.486-14.486 36.202 36.203-14.485 14.485-36.203-36.202zM174.08 522.24h-51.2v-20.48h51.2v20.48zM81.493 89.899L95.98 75.413l36.202 36.203-14.485 14.485L81.493 89.9z m50.624 806.208l-36.181 36.181-14.464-14.464 36.181-36.181 14.464 14.464z m36.182-65.11l14.464 14.464-36.182 36.182-14.464-14.464 36.182-36.182zM522.24 890.88h-20.48v-51.2h20.48v51.2z m420.907 31.701l-14.486 14.486-36.202-36.203 14.485-14.485 36.203 36.202z" p-id="1750" fill="#ffffff"></path></svg>