<?xml version="1.0" standalone="no"?><!DOCTYPE svg PUBLIC "-//W3C//DTD SVG 1.1//EN" "http://www.w3.org/Graphics/SVG/1.1/DTD/svg11.dtd"><svg t="1500703076333" class="icon" style="" viewBox="0 0 1024 1024" version="1.1" xmlns="http://www.w3.org/2000/svg" p-id="9388" xmlns:xlink="http://www.w3.org/1999/xlink" width="200" height="200"><defs><style type="text/css"></style></defs><path d="M952.32 1003.52H81.92a61.44 61.44 0 0 1-61.44-61.44V71.68A61.44 61.44 0 0 1 81.92 10.24h870.4a61.44 61.44 0 0 1 61.44 61.44v870.4a61.44 61.44 0 0 1-61.44 61.44z m20.48-890.88a61.44 61.44 0 0 0-61.44-61.44H522.24v51.2h-20.48V51.2H122.88a61.44 61.44 0 0 0-61.44 61.44v389.12H102.4v20.48H61.44v378.88a61.44 61.44 0 0 0 61.44 61.44h378.88v-51.2h20.48v51.2h389.12a61.44 61.44 0 0 0 61.44-61.44V112.64z m-61.44 389.12h51.2v20.48h-51.2v-20.48z m-19.477333-394.368l36.181333-36.181333 14.464 14.464-36.181333 36.181333-14.464-14.464z m-36.181334 65.130667l-14.464-14.464 36.181334-36.181334 14.464 14.464-36.181334 36.181334zM501.76 552.96h20.48v51.2h-20.48v-51.2z m20.48 194.56h-20.48v-51.2h20.48v51.2z m-20.48-122.88h20.48v51.2h-20.48v-51.2z m-167.04 68.864l-36.181333 36.181333-14.485334-14.485333 36.181334-36.181333 14.485333 14.485333zM233.408 765.866667l36.181333-36.181334 14.464 14.464-36.181333 36.181334-14.464-14.464zM841.237333 187.008l-36.181333 36.181333-7.914667-7.914666a379.306667 379.306667 0 0 0-17.045333 11.904l10.474667 10.474666-36.181334 36.181334-13.888-13.888c-4.928 4.48-9.898667 9.152-14.933333 14.016l14.357333 14.357333-36.181333 36.181333-13.653333-13.653333a311.04 311.04 0 0 0-12.949334 16l12.117334 12.117333-36.181334 36.181334-2.666666-2.666667c-7.189333 17.344-11.008 34.432-11.008 51.242667 26.624-36.864 48.298667-65.024 65.024-84.48 16.725333-19.456 31.744-29.184 45.056-29.184s33.941333 9.386667 61.952 28.16c27.989333 18.773333 41.984 38.4 41.984 58.88l-1.024 57.344c-0.448 14.976-0.682667 30.933333-0.853334 47.338666h39.296v20.48H851.413333l-0.042666 6.933334 1.024 72.704c0 66.218667-25.28 111.978667-75.776 137.216 64.149333 10.24 101.888 27.818667 113.152 52.736 11.264 24.917333 16.896 45.909333 16.896 62.976 0 15.018667-6.314667 22.528-18.944 22.528-0.192 0-0.448-0.064-0.64-0.085334l-9.130667 9.130667-24.917333-24.917333a395.221333 395.221333 0 0 1-31.872-25.088c-31.744-27.306667-52.906667-47.957333-63.488-61.952-10.581333-13.973333-21.333333-25.6-32.256-34.816-10.922667-9.216-16.384-15.701333-16.384-19.456a10.453333 10.453333 0 0 1 0.362666-2.346667l-15.125333-15.104c-54.677333 82.901333-114.922667 124.458667-180.821333 124.458667-28.010667 0-41.984-4.778667-41.984-14.336s8.874667-17.045333 26.624-22.528c1.258667-0.362667 2.410667-0.810667 3.648-1.194667V768h20.48v13.674667c30.805333-12.885333 55.594667-31.786667 74.197333-56.917334 16.192-21.909333 31.146667-46.997333 45.013333-74.901333l-2.410666-2.410667 7.125333-7.125333c4.352-9.130667 8.618667-18.453333 12.714667-28.181333-4.778667-16.384-7.168-26.773333-7.168-31.232 0-4.437333 0.341333-6.656 1.024-6.656 2.709333 0 7.509333 5.461333 14.336 16.384 14.997333-40.96 22.528-65.856 22.528-74.752 0-3.413333-1.536-5.12-4.608-5.12-2.453333 0-5.610667 1.685333-9.152 4.288v7.189333h-7.552a24.106667 24.106667 0 0 0-4.288 7.978667c-1.365333 4.778667-3.242667 7.168-5.632 7.168-1.984 0-6.592-5.248-13.525334-15.125334h-6.165333a1120.576 1120.576 0 0 0-18.858667 77.034667l19.178667 19.178667-14.485333 14.485333-9.173334-9.194667c-0.554667 3.562667-1.088 7.04-1.536 10.368-4.096 30.378667-11.605333 45.568-22.528 45.568-8.874667 0-17.92-10.389333-27.136-31.232-9.216-20.821333-13.824-41.642667-13.824-62.464 0-5.824 1.066667-14.08 3.008-24.277333l-15.68-15.68 14.485334-14.485333 6.442666 6.442666c1.216-4.928 2.602667-10.24 4.074667-15.786666h-9.664v-20.48h15.402667c5.077333-17.728 11.157333-37.653333 18.432-60.309334l-11.2 11.178667c-4.096 16.746667-18.496 33.898667-43.114667 51.498667v18.090666h-27.669333c-8.810667 5.226667-16.96 9.472-24.533334 12.906667l6.421334 6.421333-36.181334 36.181334-0.661333-0.682667c-2.986667 78.634667-5.824 131.008-8.533333 156.906667-3.072 29.354667-8.874667 50.858667-17.408 64.512-8.533333 13.653333-20.309333 27.989333-35.328 43.008s-26.474667 22.528-34.304 22.528c-7.850667 0-25.088-5.482667-51.712-16.384-26.624-10.922667-47.104-21.504-61.44-31.744a240.426667 240.426667 0 0 1-16.298667-12.437334l-27.562667 27.562667-14.485333-14.485333 36.181333-36.181334 12.608 12.629334c20.010667-1.493333 40.725333-4.501333 62.272-9.322667 22.869333-5.12 38.4-11.776 46.592-19.968 8.192-8.192 15.872-24.405333 23.04-48.64 5.909333-19.946667 9.237333-40.128 10.282667-60.544l-24.554667 24.554667-14.464-14.464 36.181334-36.181334 3.2 3.2a1803.136 1803.136 0 0 0-3.989334-91.136c-25.941333-5.461333-38.912-9.557333-38.912-12.288 0-2.709333 11.946667-3.733333 35.84-3.072-0.448-1.002667-1.173333-1.92-1.856-2.837333H337.92v-12.522667a164.032 164.032 0 0 0-20.48-1.856v14.378667h-35.264c-49.344 37.525333-87.978667 70.229333-115.818667 98.069333-14.336 14.336-26.282667 21.504-35.84 21.504-12.288 0-18.432-10.922667-18.432-32.768 0-5.461333 0.512-14.336 1.536-26.624 1.024-12.288 2.901333-21.824 5.632-28.672 2.709333-6.826667 11.605333-12.288 26.624-16.384 14.208-3.882667 30.506667-12.032 48.704-24.170666v-11.434667h16.341334c23.658667-17.216 64.576-48.512 123.370666-94.442667-9.578667-30.72-14.336-52.032-14.336-64 0-5.866667 0.554667-11.050667 1.621334-15.594666l-1.130667 1.130666-9.493333-9.493333c-13.952 14.954667-25.984 22.442667-36.053334 22.442667-11.605333 0-22.698667-6.997333-33.28-20.992-10.602667-13.973333-15.872-30.357333-15.872-49.152 0-18.773333 3.072-30.208 9.216-34.304 16.384-10.922667 24.576-26.624 24.576-47.104 0-6.144 3.221333-9.216 9.728-9.216s21.674667 5.802667 45.568 17.408c62.805333-29.333333 99.157333-46.592 109.056-51.712 9.898667-5.12 21.504-7.68 34.816-7.68s25.237333 7.018667 35.84 20.992c2.794667 3.690667 5.184 7.765333 7.232 12.096V122.88h20.48v51.2h-19.733333c2.709333 6.186667 4.672 13.034667 5.952 20.48h13.781333v51.2h-20.48v-2.837333a40.746667 40.746667 0 0 1-6.72 6.698666c-25.258667 19.818667-44.714667 41.322667-58.368 64.512 9.557333 12.970667 14.336 24.256 14.336 33.792 0 9.578667-0.682667 18.432-2.048 26.624 10.901333-1.344 21.141333-2.048 30.72-2.048 7.786667 0 15.125333 0.469333 22.08 1.344V337.92h20.48v40.277333a90.24 90.24 0 0 1 28.608 13.781334c12.970667 9.664 21.077333 21.525333 24.384 35.562666l12.117334 12.117334c2.410667-7.509333 4.821333-14.634667 7.210666-21.717334l-6.613333-6.613333 13.76-13.781333c19.605333-54.4 38.997333-94.997333 58.176-121.301334-24.576 8.896-44.202667 13.312-58.88 13.312-14.677333 0-31.232-8-49.664-24.064-18.432-16.021333-27.648-27.136-27.648-33.28s9.557333-9.216 28.672-9.216c19.114667 0 45.397333-6.997333 78.848-20.992 33.429333-13.973333 63.488-30.549333 90.112-49.664 21.141333-14.997333 36.501333-22.528 46.08-22.528 11.605333 0 26.453333 3.413333 44.544 10.24 18.069333 6.826667 27.136 16.896 27.136 30.208 0 4.16-1.088 8.085333-2.709333 11.904l4.842666 4.842667z m-101.973333 275.605333c9.216 5.482667 13.824 17.408 13.824 35.84s-12.970667 71.68-38.912 159.744c10.901333 10.922667 20.992 16.384 30.208 16.384 9.216 0 15.872-2.709333 19.968-8.192 4.096-5.461333 7.850667-19.968 11.264-43.52 3.413333-23.552 5.12-47.765333 5.12-72.704 0-8.277333-0.256-17.813333-0.64-27.925333H768v-20.48h11.178667a1912.832 1912.832 0 0 0-3.562667-51.434667c-3.434667-41.642667-10.602667-62.464-21.504-62.464-4.096 0-11.114667 2.922667-20.992 8.704-9.898667 5.802667-26.453333 24.064-49.664 54.784 27.989333 2.048 46.592 5.824 55.808 11.264z m-283.605333 81.002667c-1.557333 0.32-3.157333 0.704-4.650667 0.917333l-0.128 3.882667 4.778667-4.8z m-131.050667-239.573333l6.442667 6.442666c4.8-4.672 11.626667-9.28 20.629333-13.781333 25.258667-12.949333 40.96-30.72 47.104-53.248-32.554667 22.528-57.28 42.730667-74.176 60.586667z m161.216 108.394666a152.533333 152.533333 0 0 0-57.045333 10.773334l-6.976 6.976-2.709334-2.709334c-9.877333 4.8-19.413333 10.624-28.501333 17.706667 27.989333 17.066667 45.056 33.130667 51.2 48.128a194.133333 194.133333 0 0 0 23.402667-19.733333l-28.906667-28.906667 14.485333-14.485333 27.989334 27.989333c1.514667-1.941333 3.114667-3.84 4.501333-5.824 10.581333-14.997333 15.872-25.408 15.872-31.232 0-5.76-4.437333-8.682667-13.312-8.682667z m230.677333-129.664l0.362667-0.362666-0.362667 0.362666zM501.76 266.24h20.48v51.2h-20.48v-51.2zM182.869333 191.274667l14.464-14.485334 36.202667 36.202667-14.485333 14.485333-36.181334-36.202666zM132.181333 140.586667l14.485334-14.485334 36.202666 36.202667-14.485333 14.485333L132.181333 140.586667zM174.08 522.24h-51.2v-20.48h51.2v20.48zM81.493333 89.898667l14.485334-14.485334 36.202666 36.202667-14.485333 14.485333L81.493333 89.898667z m50.624 806.208l-36.181333 36.181333-14.464-14.464 36.181333-36.181333 14.464 14.464z m36.181334-65.109334l14.464 14.464-36.181334 36.181334-14.464-14.464 36.181334-36.181334zM522.24 890.88h-20.48v-51.2h20.48v51.2z m420.906667 31.701333l-14.485334 14.485334-36.202666-36.202667 14.485333-14.485333 36.202667 36.202666z" p-id="9389" fill="#9ba3af"></path></svg>