<?xml version="1.0" standalone="no"?><!DOCTYPE svg PUBLIC "-//W3C//DTD SVG 1.1//EN" "http://www.w3.org/Graphics/SVG/1.1/DTD/svg11.dtd"><svg t="1499420980816" class="icon" style="" viewBox="0 0 1024 1024" version="1.1" xmlns="http://www.w3.org/2000/svg" p-id="4366" xmlns:xlink="http://www.w3.org/1999/xlink" width="200" height="200"><defs><style type="text/css"></style></defs><path d="M511.204 600.549c-21.475 0-47.457-6.364-75.028-26.778-3.977-2.916-53.025-39.503-64.688-109.759-10.074-3.977-20.679-12.725-25.452-30.489l-0.53-2.119c-1.326-9.013 0.53-24.656 11.93-35.791-6.894-28.634-16.702-103.662 46.661-162.784 2.386-2.386 26.511-24.921 63.364-36.322 35.791-11.135 90.672-14.051 148.734 35.791 2.916 2.652 70.523 62.569 46.928 163.314 7.954 7.687 14.581 20.414 11.399 38.177-1.326 8.75-8.484 23.596-24.921 29.958-3.711 23.33-17.233 74.499-64.159 109.495-3.711 3.182-19.619 16.173-43.745 22.8-8.484 2.652-18.823 4.508-30.489 4.508zM399.855 433.259l1.59 15.907c6.364 64.688 52.758 98.626 53.289 98.89l0.267 0.267c25.452 18.823 51.168 24.656 77.151 17.764 19.884-5.302 32.609-16.702 32.875-16.702l1.326-1.060c49.578-36.587 53.289-97.829 53.289-98.359l0.796-14.316 14.316-0.796c7.687-0.53 8.75-5.302 8.75-6.097v-0.53c1.326-6.894-1.59-10.074-4.508-11.666l-13.787-5.037 5.037-14.051c25.452-87.225-32.080-138.923-34.465-141.309-37.648-32.346-77.68-42.42-118.51-29.429-31.020 9.545-50.639 28.634-50.903 28.897l-0.267 0.267c-62.569 58.327-36.322 137.332-34.996 140.78l4.772 13.521-12.991 6.097c-5.037 2.386-5.568 7.423-5.568 10.074 2.652 8.219 6.894 8.484 7.158 8.219l15.377-1.326z" p-id="4367" fill="#ffffff"></path><path d="M812.381 812.914h-593.341c-17.764 0-27.838-13.521-28.897-26.778v-44.011c0-9.28 4.772-16.702 9.545-20.679 87.49-81.922 198.842-106.314 207.326-108.17 17.764-4.242 30.489 1.326 34.732 3.711 19.884 9.013 46.928 13.787 78.211 13.521 31.814-0.267 62.304-11.93 66.545-13.521 16.967-8.484 30.489-5.302 36.058-3.445 120.366 27.838 201.228 103.132 206.796 108.434 6.894 6.097 9.013 14.581 9.013 20.414v44.011l-0.267 1.060c-2.386 16.438-14.581 24.921-25.187 25.717l-0.53-0.267zM221.956 781.098h584.594v-37.117c-9.28-8.484-85.105-75.295-192.214-99.95l-2.652-0.53-0.53-0.267c-1.326-0.267-5.302-0.53-10.87 2.119l-1.326 0.53c-1.59 0.53-38.707 15.907-79.006 16.173-36.851 0.267-67.871-5.302-92.261-16.702l-1.857-0.796c-1.326-0.53-5.302-1.857-11.666-0.53l-0.796 0.267c-1.060 0.267-109.495 23.067-191.681 99.686v37.117z" p-id="4368" fill="#ffffff"></path><path d="M206.579 445.455c-14.051 0-29.694-4.242-45.865-16.173-2.916-2.119-29.958-22.8-37.911-61.509-6.364-3.711-11.93-10.074-14.581-19.884l-0.53-2.119c-0.796-5.568 0-15.111 5.833-22.8-3.711-19.354-6.364-60.447 28.634-93.058 20.679-20.15 73.705-46.131 126.993-0.53 1.857 1.59 40.563 36.058 29.164 93.588 4.508 6.097 7.423 14.316 5.568 24.391-1.326 7.423-6.097 15.643-14.581 20.15-3.182 15.111-11.93 42.155-37.381 61.243-8.484 7.687-24.921 16.702-45.335 16.702zM151.435 338.079l1.59 15.907c3.182 32.346 25.717 49.047 26.511 49.578 28.103 20.679 49.578 3.182 51.964 1.060l1.060-1.060c24.391-18.293 26.511-48.782 26.511-49.047l0.796-14.316 6.894-0.267-5.302-2.386 3.977-13.521c12.725-43.745-15.643-69.727-16.967-70.787-44.541-38.177-82.452-2.119-84.044-0.53l-0.267 0.267c-31.55 29.429-17.764 69.727-17.498 70.257l4.772 13.521-3.182 1.59 3.182-0.267z" p-id="4369" fill="#ffffff"></path><path d="M814.238 445.455c-14.051 0-29.694-4.242-45.865-16.173-2.916-2.119-29.958-22.8-37.911-61.509-6.364-3.711-11.93-10.074-14.581-19.884l-0.53-2.119c-0.796-5.568 0-15.111 5.833-22.8-3.711-19.354-6.364-60.447 28.634-93.058 20.679-20.15 73.705-46.131 126.993-0.53 1.857 1.59 40.563 36.058 29.164 93.588 4.508 6.097 7.423 14.316 5.568 24.391-1.326 7.423-6.097 15.643-14.581 20.15-3.182 15.111-11.93 42.155-37.381 61.243-8.484 7.687-24.921 16.702-45.335 16.702zM759.093 338.079l1.59 15.907c3.182 32.346 26.247 49.578 26.511 49.578l0.267 0.267c27.838 20.679 49.313 3.182 51.698 1.060l1.060-1.060c24.391-18.293 26.511-48.782 26.511-49.047l0.796-14.316 5.568-0.267-5.302-1.857 5.037-14.051c12.991-44.275-16.438-70.523-16.702-70.787-43.479-37.381-80.066-4.508-84.044-0.53l-0.267 0.267c-31.55 29.429-17.764 69.727-17.498 70.257l4.772 13.521-3.182 1.59 3.182-0.53z" p-id="4370" fill="#ffffff"></path><path d="M368.304 589.417c-18.823 0-31.283 0-31.283 0h-291.898c-14.051 0-22.27-11.135-23.067-21.475v-24.921c0-7.423 3.711-13.521 7.687-16.702 49.313-46.131 112.145-60.182 117.98-61.509 11.666-2.916 20.414 0.796 23.861 2.652 7.158 3.182 19.884 6.894 40.034 6.627 15.643 0 31.020-5.833 33.935-6.894 9.545-4.772 18.558-4.242 24.656-2.386 46.661 9.28 65.221 24.126 67.341 25.981l0.267 0.267c3.182 2.916 4.242 5.833 6.097 10.605 1.326 3.445 3.182 8.75 6.097 15.111 2.386 5.302 9.013 17.498 11.93 22.27 8.219 12.725 18.293 23.596 18.293 23.596l24.656 26.778h-36.587zM53.87 557.601h281.823c-0.267-0.267-0.53-0.796-0.796-1.060-3.977-6.097-11.399-19.884-14.581-26.778-3.182-6.894-5.302-12.725-6.627-16.438-6.097-3.711-21.741-11.666-51.434-17.498l-2.119-0.53c-0.267 0-0.53 0.267-1.060 0.53l-1.326 0.53c-0.796 0.267-22.8 9.28-46.397 9.545-21.475 0-39.503-3.182-54.084-9.81l-1.060-0.53c-0.267 0-0.796 0-1.857 0.267l-0.796 0.267c-0.53 0-56.736 11.93-100.215 51.434v10.074z" p-id="4371" fill="#ffffff"></path><path d="M653.045 589.417h-36.587l24.921-26.778c0 0 10.074-10.87 18.293-23.596 3.182-4.772 9.545-16.967 11.93-22.27 2.916-6.627 4.772-11.666 6.097-15.111 1.59-4.508 2.652-7.687 6.097-10.605l0.267-0.267c1.857-1.59 20.679-16.702 67.341-25.981 6.097-2.119 15.111-2.386 24.656 2.386 2.652 1.060 18.293 6.894 33.935 6.894 20.15 0.267 32.875-3.445 40.034-6.627 3.445-1.857 12.196-5.302 23.861-2.652 5.833 1.326 68.401 15.377 117.98 61.509 3.711 3.445 7.687 9.28 7.687 16.702v24.921c-0.796 10.339-9.013 21.475-23.067 21.475h-292.164c-0.267 0-12.725 0-31.283 0zM707.395 513.326c-1.326 3.711-3.445 9.28-6.627 16.438-2.916 6.894-10.605 20.679-14.581 26.778-0.267 0.267-0.53 0.796-0.796 1.060h281.823v-10.339c-43.745-39.237-99.686-51.168-100.482-51.434l-0.796-0.267c-0.796-0.267-1.326-0.267-1.857-0.267l-1.060 0.53c-14.316 6.627-32.080 9.81-53.025 9.81-0.267 0-0.796 0-1.060 0-23.596-0.267-45.335-9.013-46.397-9.545l-1.326-0.53c-0.53-0.267-0.796-0.267-1.060-0.53h-0.267l-2.119 0.267c-28.634 6.364-44.541 14.581-50.373 18.027z" p-id="4372" fill="#ffffff"></path></svg>