<?xml version="1.0" standalone="no"?><!DOCTYPE svg PUBLIC "-//W3C//DTD SVG 1.1//EN" "http://www.w3.org/Graphics/SVG/1.1/DTD/svg11.dtd"><svg t="1531442911055" class="icon" style="" viewBox="0 0 1024 1024" version="1.1" xmlns="http://www.w3.org/2000/svg" p-id="6881" xmlns:xlink="http://www.w3.org/1999/xlink" width="200" height="200"><defs><style type="text/css"></style></defs><path d="M731.5 47.015c39.13 0 70.893 31.603 70.893 70.53v329.093L412.872 846.262h11.045-283.946c-39.162 0-70.874-31.46-70.874-70.29V47.014H45.442 731.5zM21.787 0v775.971c0 64.814 52.912 117.306 118.184 117.306H433.837l6.952-7.031 402.13-406.65 6.783-6.859V117.546C849.702 52.666 796.77 0 731.5 0H21.787zM778.228 636.42l88.67 88.671 18.227 19.487 97.468-98.204-127.08-127.814-95.617 100.266 18.332 17.595z m139.143 6.636l-35.34 35.566-59.302-57.191 34.174-37.121 60.468 58.746z" fill="#9ba3af" p-id="6882"></path><path d="M772.342 604.742L515.87 861.214l-4.992 4.991-1.384 6.923-23.316 116.578-6.859 34.294 34.294-6.859 116.578-23.315 6.923-1.385 4.992-4.992 256.471-256.471 16.487-16.487-16.487-16.487-93.262-93.262-16.487-16.487-16.486 16.487z m16.206 49.977l60.69 59.895L613.06 948.1l-75.636 16.439 18.83-77.751 232.295-232.07zM154.38 392.17h540.942c13.065 0 23.657-9.754 23.657-21.787s-10.592-21.787-23.657-21.787H154.38c-13.065 0-23.657 9.754-23.657 21.787s10.592 21.787 23.657 21.787zM154.38 239.66h540.942c13.065 0 23.657-9.755 23.657-21.788 0-12.032-10.592-21.787-23.657-21.787H154.38c-13.065 0-23.657 9.755-23.657 21.787 0 12.033 10.592 21.788 23.657 21.788z" fill="#9ba3af" p-id="6883"></path></svg>