<?xml version="1.0" standalone="no"?><!DOCTYPE svg PUBLIC "-//W3C//DTD SVG 1.1//EN" "http://www.w3.org/Graphics/SVG/1.1/DTD/svg11.dtd"><svg t="1502188385254" class="icon" style="" viewBox="0 0 1024 1024" version="1.1" xmlns="http://www.w3.org/2000/svg" p-id="2636" xmlns:xlink="http://www.w3.org/1999/xlink" width="128" height="128"><defs><style type="text/css"></style></defs><path d="M334.592 538.01984c23.18848-7.808 48.62464 5.5808 56.8064 29.9008 8.192 24.32-3.97312 50.36032-27.15648 58.15808-23.18848 7.808-48.62464-5.57568-56.81664-29.89568-8.18688-24.32512 3.97312-50.3552 27.16672-58.1632z m325.17632 0c23.17824-7.808 48.62464 5.5808 56.8064 29.9008 8.19712 24.32-3.968 50.36032-27.1616 58.15808-23.18848 7.808-48.61952-5.57568-56.81152-29.89568-8.192-24.32512 3.98336-50.3552 27.16672-58.1632z m232.93952-9.0112c-2.14016 0-4.224 0.1792-6.32832 0.31744a394.8544 394.8544 0 0 0 0.48128-17.81248 373.61664 373.61664 0 0 0-5.96992-66.08896c7.38304-0.94208 14.77632-1.91488 22.15936-2.93376 0 0-54.72256-325.31456-386.86208-325.31456-294.22592 0-380.47232 231.05024-396.27776 322.2528 0 0 7.63904 1.77664 20.99712 4.20352a377.8304 377.8304 0 0 0-6.05696 67.06688c-0.01536 5.92384 0.1536 11.81696 0.42496 17.66912-1.26464-0.03072-2.48832-0.1792-3.7632-0.1792-53.60128-0.05632-97.1008 43.3408-97.16736 96.95232-0.06144 53.61152 43.35104 97.11104 96.95232 97.17248a96.52736 96.52736 0 0 0 34.11456-6.25152c46.1824 122.76224 183.1168 211.86048 344.9856 212.04992 162.24256 0.16384 299.62752-89.03168 345.77408-212.11136a96.51712 96.51712 0 0 0 36.32128 7.13216c53.60128 0.06144 97.10592-43.35104 97.17248-96.95744s-43.35616-97.10592-96.95744-97.16736z m46.208 109.10208c-7.76192 26.91072-27.79136 31.86688-46.0544 33.74592-30.4384 3.14368-66.5856-11.85792-66.5856-11.85792-56.13568 132.14208-173.6448 209.8432-329.16992 205.47584-234.14272-6.60992-292.34688-204.6464-292.34688-204.6464-12.27776 8.32512-37.01248 11.93984-62.52032 11.93984-20.06528 0-47.32928-12.11904-51.97824-43.77088-4.56704-31.01696 21.70368-50.7904 42.86464-56.5504 20.06016-5.47328 51.97824-9.1136 51.97824-9.1136 1.03936-27.5712 3.64032-53.1456 7.57248-76.86144a502.19008 502.19008 0 0 1 6.90176-34.23232c26.71104 3.01056 58.28608 5.37088 91.7248 5.38624l58.112-94.18752L401.09056 467.4048s205.62944 7.18848 425.45152-15.70304a520.8576 520.8576 0 0 1 6.99904 40.07424c5.70368 42.40384 2.67776 70.81984 2.67776 70.81984 37.4784 2.10432 62.1056 8.02304 77.31712 15.32416 19.92704 9.56416 33.56672 31.77984 25.37984 60.19072z" fill="#bfbfbf" p-id="2637"></path></svg>